<?xml version="1.0" encoding="utf-8"?>
<!-- Generator: Adobe Illustrator 27.5.0, SVG Export Plug-In . SVG Version: 6.00 Build 0)  -->
<svg version="1.1" xmlns="http://www.w3.org/2000/svg" xmlns:xlink="http://www.w3.org/1999/xlink" x="0px" y="0px"
	 viewBox="0 0 500 500" style="enable-background:new 0 0 500 500;" xml:space="preserve">
<g id="Floor">
	<ellipse id="Floor_5_" style="fill:#F5F5F5;" cx="250" cy="346.967" rx="238.014" ry="141.586"/>
</g>
<g id="Shadows">
	<path id="Shadow_5_" style="fill:#E0E0E0;" d="M378.456,339.151l78.467-45.256c3.098-1.789,3.098-4.689,0-6.478l-113.221-65.495
		c-3.098-1.789-8.122-1.789-11.22,0l-78.464,45.255c-3.098,1.789-3.098,4.689,0,6.478l113.218,65.497
		C370.335,340.94,375.358,340.94,378.456,339.151z"/>
	<path id="Shadow_6_" style="fill:#E0E0E0;" d="M178.794,449.601L61.219,381.824c-3.311-1.912-3.311-5.011,0-6.922l163.572-94.451
		c3.311-1.911,8.679-1.911,11.99,0l117.572,67.776c3.311,1.911,3.311,5.011,0,6.922l-163.569,94.452
		C187.473,451.513,182.105,451.513,178.794,449.601z"/>
	<path id="XMLID_5436_" style="fill:#E0E0E0;" d="M113.879,440.289c-12.959,7.482-33.969,7.482-46.927,0
		c-12.959-7.482-12.959-19.612,0-27.094c12.959-7.482,33.969-7.482,46.927,0C126.838,420.677,126.838,432.807,113.879,440.289z"/>
	<path id="XMLID_5520_" style="fill:#E0E0E0;" d="M242.54,438.813c0.034-0.046,0.074-0.091,0.114-0.131l5.916-6.503
		c0-0.005,0.005-0.011,0.011-0.017l0.046-0.049c0.035-0.041,0.072-0.079,0.108-0.117l0.063-0.068l0.003,0.005
		c0.845-0.811,2.188-0.881,3.703-0.005c2.56,1.477,4.635,5.071,4.635,8.027c0,1.715-0.702,2.833-1.789,3.185l0.003,0.005
		l-0.071,0.015c-0.108,0.032-0.22,0.057-0.336,0.073l-0.073,0.016c-0.006,0-0.017,0-0.023,0.006l-8.573,1.871
		c-0.428,0.097-0.941-0.005-1.494-0.325c-1.466-0.844-2.653-2.898-2.653-4.586C242.129,439.606,242.277,439.138,242.54,438.813z"/>
	<path style="fill:#E0E0E0;" d="M381.099,378.941l-124.766,72.112l-17.285,3.516c-0.442,0.09-0.786-0.377-0.571-0.773l5.412-9.927
		l124.783-72.121C372.08,369.78,383.771,377.398,381.099,378.941z"/>
	<path id="Shadow_25_" style="fill:#E0E0E0;" d="M310.096,437.839c1.254,3.405,4.885,5.519,10.94,6.316l108.082-62.949l11.22-11.366
		c0.643-0.651-0.024-1.726-0.893-1.438l-20.651,6.843L310.096,437.839z"/>
</g>
<g id="Books">
	<g id="Books_2_">
		<g id="Book_5_">
			<g id="XMLID_5438_">
				<polygon id="XMLID_5500_" style="fill:#BA68C8;" points="440.75,290.742 371.159,330.039 264.289,268.714 333.873,229.412 				
					"/>
				<polygon id="XMLID_5499_" style="opacity:0.6;" points="440.75,290.742 371.159,330.039 264.289,268.714 333.873,229.412 				
					"/>
				<path id="XMLID_5498_" style="fill:#F5F5F5;" d="M370.403,327.166l67.246-38.203c-1.67-4.741-1.545-6.18,0.346-12.491
					l-66.837,37.815C371.158,314.288,369.943,314.198,370.403,327.166z"/>
				<path id="XMLID_5497_" style="fill:#BA68C8;" d="M374.42,309.107c-3.393,1.948-6.143,6.683-6.144,10.578v8.264
					c0,3.896,2.751,5.474,6.144,3.527l66.321-37.673l0.008-3.061l-65.481,36.963c-2.036,1.168-3.684,0.221-3.682-2.116l0.058-7.359
					c0.002-2.337,1.654-5.178,3.691-6.347l65.407-36.979v-3.47L374.42,309.107z"/>
				<path id="XMLID_5496_" style="opacity:0.5;" d="M374.42,309.107c-3.393,1.948-6.143,6.683-6.144,10.578v8.264
					c0,3.896,2.751,5.474,6.144,3.527l66.321-37.673l0.008-3.061l-65.481,36.963c-2.036,1.168-3.684,0.221-3.682-2.116l0.058-7.359
					c0.002-2.337,1.654-5.178,3.691-6.347l65.407-36.979v-3.47L374.42,309.107z"/>
				<path id="XMLID_5495_" style="fill:#BA68C8;" d="M440.743,271.441l-106.871-61.327l-66.317,37.669
					c-3.391,1.946-6.144,6.686-6.144,10.578l-0.002,8.267c0.004,1.94,0.684,3.308,1.802,3.949l106.87,61.327
					c-1.118-0.642-1.798-2.009-1.802-3.949l-0.009-8.274c0-3.892,2.752-8.632,6.143-10.578L440.743,271.441z"/>
				<path id="XMLID_5493_" style="opacity:0.35;" d="M440.743,271.441l-106.871-61.327l-66.317,37.669
					c-3.391,1.946-6.144,6.686-6.144,10.578l-0.002,8.267c0.004,1.94,0.684,3.308,1.802,3.949l106.87,61.327
					c-1.118-0.642-1.798-2.009-1.802-3.949l-0.009-8.274c0-3.892,2.752-8.632,6.143-10.578L440.743,271.441z"/>
				<path id="XMLID_5492_" style="fill:#BA68C8;" d="M370.07,313.663c-1.111,1.915-1.799,4.072-1.799,6.018l0.009,8.274
					c0.004,1.94,0.684,3.307,1.802,3.949l-106.87-61.327c-1.118-0.642-1.798-2.009-1.802-3.949l0.002-8.267
					c0-1.947,0.688-4.103,1.8-6.019L370.07,313.663z"/>
				<path id="XMLID_5491_" style="opacity:0.45;" d="M370.07,313.663c-1.111,1.915-1.799,4.072-1.799,6.018l0.009,8.274
					c0.004,1.94,0.684,3.307,1.802,3.949l-106.87-61.327c-1.118-0.642-1.798-2.009-1.802-3.949l0.002-8.267
					c0-1.947,0.688-4.103,1.8-6.019L370.07,313.663z"/>
				<g>
					<path style="fill:#BA68C8;" d="M277.647,260.54c-1.991,8.65-1.963,12.029-0.001,18.372l5.088,2.937
						c-1.962-6.343-1.991-9.723,0.001-18.372L277.647,260.54z"/>
					<path style="fill:#BA68C8;" d="M347.742,300.818c-1.991,8.649-1.963,11.919-0.001,18.263l5.088,2.937
						c-1.962-6.344-1.99-9.614,0.001-18.263L347.742,300.818z"/>
				</g>
			</g>
		</g>
		<g id="Book_4_">
			<g id="XMLID_5465_">
				<polygon id="XMLID_5489_" style="fill:#BA68C8;" points="454.788,270.409 385.196,309.706 278.326,248.381 347.911,209.079 				
					"/>
				<polygon id="XMLID_5486_" style="opacity:0.4;" points="454.788,270.409 385.196,309.706 278.326,248.381 347.911,209.079 				
					"/>
				<path id="XMLID_5485_" style="fill:#F5F5F5;" d="M384.44,306.833l67.246-38.203c-1.67-4.741-1.545-6.862,0.346-13.173
					l-66.837,37.815C385.195,293.272,383.981,293.865,384.44,306.833z"/>
				<path id="XMLID_5484_" style="fill:#BA68C8;" d="M388.458,288.091c-3.393,1.948-6.143,6.683-6.144,10.578v8.946
					c0,3.896,2.751,5.474,6.144,3.527l66.321-37.673l0.008-3.061l-65.481,36.963c-2.036,1.168-3.684,0.221-3.682-2.116l0.058-8.041
					c0.002-2.337,1.654-5.178,3.691-6.347l65.407-36.98v-3.47L388.458,288.091z"/>
				<path id="XMLID_5483_" style="opacity:0.25;" d="M388.458,288.091c-3.393,1.948-6.143,6.683-6.144,10.578v8.946
					c0,3.896,2.751,5.474,6.144,3.527l66.321-37.673l0.008-3.061l-65.481,36.963c-2.036,1.168-3.684,0.221-3.682-2.116l0.058-8.041
					c0.002-2.337,1.654-5.178,3.691-6.347l65.407-36.98v-3.47L388.458,288.091z"/>
				<path id="XMLID_5482_" style="fill:#BA68C8;" d="M454.78,250.426L347.91,189.099l-66.317,37.669
					c-3.391,1.946-6.144,6.686-6.144,10.578l-0.002,8.949c0.004,1.94,0.684,3.308,1.802,3.949l106.87,61.327
					c-1.118-0.642-1.798-2.009-1.802-3.949l-0.009-8.957c0-3.892,2.752-8.632,6.143-10.578L454.78,250.426z"/>
				<path id="XMLID_5480_" style="fill:#BA68C8;" d="M384.108,292.647c-1.111,1.915-1.799,4.072-1.799,6.018l0.009,8.957
					c0.004,1.94,0.684,3.307,1.802,3.949l-106.87-61.327c-1.118-0.642-1.798-2.009-1.802-3.949l0.002-8.949
					c0-1.947,0.688-4.103,1.8-6.019L384.108,292.647z"/>
				<path id="XMLID_5466_" style="opacity:0.15;" d="M384.108,292.647c-1.111,1.915-1.799,4.072-1.799,6.018l0.009,8.957
					c0.004,1.94,0.684,3.307,1.802,3.949l-106.87-61.327c-1.118-0.642-1.798-2.009-1.802-3.949l0.002-8.949
					c0-1.947,0.688-4.103,1.8-6.019L384.108,292.647z"/>
				<g>
					<path style="fill:#BA68C8;" d="M291.684,239.524c-1.991,8.65-1.962,12.711-0.001,19.055l5.087,2.937
						c-1.962-6.343-1.99-10.405,0.001-19.055L291.684,239.524z"/>
					<path style="fill:#BA68C8;" d="M361.78,279.853c-1.991,8.649-1.963,12.567-0.001,18.91l5.087,2.937
						c-1.962-6.344-1.99-10.287,0.001-18.936L361.78,279.853z"/>
				</g>
				<g style="opacity:0.4;">
					<path style="fill:#FFFFFF;" d="M291.684,239.524c-1.991,8.65-1.962,12.711-0.001,19.055l5.087,2.937
						c-1.962-6.343-1.99-10.405,0.001-19.055L291.684,239.524z"/>
					<path style="fill:#FFFFFF;" d="M361.78,279.853c-1.991,8.649-1.963,12.567-0.001,18.91l5.087,2.937
						c-1.962-6.344-1.99-10.287,0.001-18.936L361.78,279.853z"/>
				</g>
			</g>
		</g>
	</g>
	<g id="Books_1_">
		<g id="Book_3_">
			<g id="XMLID_5442_">
				<polygon id="XMLID_5454_" style="fill:#BA68C8;" points="78.498,378.408 186.589,439.818 343.374,349.823 235.291,288.409 				
					"/>
				<polygon id="XMLID_5453_" style="opacity:0.4;" points="78.498,378.408 186.589,439.818 343.374,349.823 235.291,288.409 				
					"/>
				<path id="XMLID_5452_" style="fill:#F5F5F5;" d="M187.396,436.747l-105.585-60.24c1.785-5.066,1.651-7.333-0.369-14.076
					l105.148,59.826C186.59,422.257,187.888,422.89,187.396,436.747z"/>
				<path id="XMLID_5451_" style="fill:#BA68C8;" d="M183.104,416.721c3.625,2.081,6.565,7.141,6.565,11.304v9.56
					c0,4.163-2.939,5.849-6.566,3.769L78.507,381.679l-0.008-3.271l103.699,58.916c2.176,1.248,3.937,0.236,3.935-2.261
					l-0.062-8.593c-0.002-2.497-1.767-5.534-3.944-6.783l-103.62-58.933v-3.708L183.104,416.721z"/>
				<path id="XMLID_5450_" style="opacity:0.3;" d="M183.104,416.721c3.625,2.081,6.565,7.141,6.565,11.304v9.56
					c0,4.163-2.939,5.849-6.566,3.769L78.507,381.679l-0.008-3.271l103.699,58.916c2.176,1.248,3.937,0.236,3.935-2.261
					l-0.062-8.593c-0.002-2.497-1.767-5.534-3.944-6.783l-103.62-58.933v-3.708L183.104,416.721z"/>
				<path id="XMLID_5446_" style="fill:#BA68C8;" d="M78.506,357.054l156.786-89.997l104.592,59.67
					c3.624,2.08,6.565,7.144,6.565,11.304l0.002,9.563c-0.004,2.073-0.731,3.535-1.925,4.22L187.74,441.811
					c1.194-0.686,1.921-2.147,1.925-4.22l0.01-9.571c0-4.159-2.941-9.223-6.564-11.303L78.506,357.054z"/>
				<path id="XMLID_5392_" style="opacity:0.2;" d="M78.506,357.054l156.786-89.997l104.592,59.67
					c3.624,2.08,6.565,7.144,6.565,11.304l0.002,9.563c-0.004,2.073-0.731,3.535-1.925,4.22L187.74,441.811
					c1.194-0.686,1.921-2.147,1.925-4.22l0.01-9.571c0-4.159-2.941-9.223-6.564-11.303L78.506,357.054z"/>
				<path id="XMLID_5444_" style="fill:#BA68C8;" d="M187.752,421.589c1.187,2.046,1.923,4.352,1.923,6.431l-0.01,9.571
					c-0.004,2.073-0.731,3.534-1.925,4.22l156.786-89.996c1.194-0.685,1.922-2.147,1.925-4.22l-0.002-9.563
					c-0.001-2.08-0.736-4.385-1.924-6.432L187.752,421.589z"/>
				<path id="XMLID_5443_" style="fill:#BA68C8;" d="M187.748,421.586c1.187,2.046,1.923,4.352,1.923,6.431l-0.01,9.571
					c-0.004,2.073-0.731,3.535-1.926,4.22l156.786-89.996c1.195-0.686,1.922-2.147,1.926-4.22l-0.002-9.563
					c0-2.08-0.736-4.385-1.924-6.432L187.748,421.586z"/>
				<g>
					<path style="fill:#BA68C8;" d="M329.1,340.359c2.128,9.243,2.097,13.583,0.001,20.361l-5.436,3.139
						c2.097-6.779,2.127-11.119-0.001-20.361L329.1,340.359z"/>
					<path style="fill:#BA68C8;" d="M211.611,407.892c2.128,9.242,2.098,13.446,0.001,20.224l-5.436,3.11
						c2.097-6.779,2.127-10.975-0.001-20.218L211.611,407.892z"/>
				</g>
				<g style="opacity:0.4;">
					<path style="fill:#FFFFFF;" d="M329.1,340.359c2.128,9.243,2.097,13.583,0.001,20.361l-5.436,3.139
						c2.097-6.779,2.127-11.119-0.001-20.361L329.1,340.359z"/>
					<path style="fill:#FFFFFF;" d="M211.611,407.892c2.128,9.242,2.098,13.446,0.001,20.224l-5.436,3.11
						c2.097-6.779,2.127-10.975-0.001-20.218L211.611,407.892z"/>
				</g>
			</g>
		</g>
		<g id="Book_1_">
			<g id="XMLID_5388_">
				<polygon id="XMLID_5407_" style="fill:#BA68C8;" points="64.647,357.636 172.738,419.046 329.523,329.051 221.44,267.637 				
					"/>
				<polygon id="XMLID_5406_" style="opacity:0.2;fill:#FFFFFF;" points="64.647,357.636 172.738,419.046 329.523,329.051 
					221.44,267.637 				"/>
				<path id="XMLID_5405_" style="fill:#F5F5F5;" d="M173.546,415.975L67.96,355.735c1.785-5.066,1.651-6.604-0.369-13.347
					l105.148,59.826C172.739,402.214,174.037,402.118,173.546,415.975z"/>
				<path id="XMLID_5404_" style="fill:#BA68C8;" d="M169.253,396.678c3.625,2.081,6.565,7.141,6.565,11.304v8.831
					c0,4.163-2.939,5.849-6.566,3.769L64.656,360.907l-0.008-3.271l103.699,58.916c2.176,1.249,3.936,0.236,3.935-2.261
					l-0.062-7.864c-0.002-2.497-1.768-5.534-3.944-6.783L64.656,340.712v-3.708L169.253,396.678z"/>
				<path id="XMLID_5403_" style="opacity:0.4;fill:#FFFFFF;" d="M169.253,396.678c3.625,2.081,6.565,7.141,6.565,11.304v8.831
					c0,4.163-2.939,5.849-6.566,3.769L64.656,360.907l-0.008-3.271l103.699,58.916c2.176,1.249,3.936,0.236,3.935-2.261
					l-0.062-7.864c-0.002-2.497-1.768-5.534-3.944-6.783L64.656,340.712v-3.708L169.253,396.678z"/>
				<path id="XMLID_5401_" style="fill:#BA68C8;" d="M64.655,337.012l156.786-89.997l104.592,59.67
					c3.624,2.08,6.565,7.144,6.565,11.304l0.002,8.834c-0.004,2.073-0.731,3.535-1.926,4.22l-156.786,89.996
					c1.194-0.686,1.921-2.147,1.926-4.22l0.01-8.842c0-4.159-2.941-9.224-6.564-11.303L64.655,337.012z"/>
				<path id="XMLID_5398_" style="opacity:0.85;fill:#FFFFFF;" d="M64.655,337.012l156.786-89.997l104.592,59.67
					c3.624,2.08,6.565,7.144,6.565,11.304l0.002,8.834c-0.004,2.073-0.731,3.535-1.926,4.22l-156.786,89.996
					c1.194-0.686,1.921-2.147,1.926-4.22l0.01-8.842c0-4.159-2.941-9.224-6.564-11.303L64.655,337.012z"/>
				<path id="XMLID_5397_" style="fill:#BA68C8;" d="M173.901,401.546c1.187,2.046,1.923,4.352,1.923,6.431l-0.01,8.842
					c-0.004,2.073-0.731,3.534-1.926,4.22l156.786-89.996c1.195-0.685,1.922-2.147,1.926-4.22l-0.002-8.834
					c0-2.08-0.736-4.385-1.924-6.431L173.901,401.546z"/>
				<path id="XMLID_5396_" style="opacity:0.6;fill:#FFFFFF;" d="M173.901,401.546c1.187,2.046,1.923,4.352,1.923,6.431l-0.01,8.842
					c-0.004,2.073-0.731,3.534-1.926,4.22l156.786-89.996c1.195-0.685,1.922-2.147,1.926-4.22l-0.002-8.834
					c0-2.08-0.736-4.385-1.924-6.431L173.901,401.546z"/>
				<g>
					<path style="fill:#FFFFFF;" d="M315.249,320.316c2.128,9.243,2.097,12.854,0.001,19.632l-5.436,3.139
						c2.097-6.779,2.127-10.39-0.001-19.633L315.249,320.316z"/>
					<path style="fill:#FFFFFF;" d="M197.76,387.82c2.128,9.242,2.098,12.737,0.001,19.515l-5.437,3.139
						c2.097-6.779,2.127-10.273-0.001-19.515L197.76,387.82z"/>
				</g>
			</g>
		</g>
	</g>
</g>
<g id="Graduation_Cap_1_">
	<g id="Graduation_Cap">
		<g id="XMLID_5408_">
			<path style="fill:#37474F;" d="M307.852,195.931v40.698c0.028,5.865,5.146,11.722,15.364,16.194
				c20.483,8.964,53.692,8.964,74.175,0c10.246-4.491,15.355-10.366,15.355-16.24v-40.652h-0.009
				c0.12-5.948-4.989-11.906-15.346-16.443c-20.483-8.964-53.692-8.964-74.175,0c-10.366,4.537-15.475,10.495-15.355,16.443H307.852
				z"/>
			<path style="fill:#263238;" d="M307.861,195.931c-0.12-5.948,4.989-11.906,15.355-16.443c20.483-8.964,53.692-8.964,74.175,0
				c10.357,4.537,15.466,10.495,15.346,16.443h0.009v18.593c-0.008-4.612-4.082-7.913-16.197-3.454
				c-19.851,7.306-30.986,19.379-51.237,25.346c-16.744,4.933-31.576,3.032-37.461-3.123v-37.362H307.861z"/>
			<g id="XMLID_5464_">
				<path style="fill:#BA68C8;" d="M307.852,217.471v4.616c0.028,5.856,5.146,11.722,15.364,16.185
					c20.483,8.973,53.692,8.973,74.175,0c10.32-4.51,15.429-10.449,15.355-16.37v-4.478c0,5.875-5.109,11.749-15.355,16.24
					c-20.483,8.964-53.692,8.964-74.175,0C312.998,229.193,307.879,223.337,307.852,217.471z"/>
			</g>
		</g>
		<g>
			<polygon style="fill:#37474F;" points="442.712,182.954 360.297,144.023 277.882,182.954 277.882,189.442 360.297,224.047 
				442.712,189.442 			"/>
			<polygon style="opacity:0.2;fill:#BA68C8;" points="360.297,224.047 360.297,217.559 442.712,182.954 442.712,189.442 			"/>
			<polygon style="opacity:0.2;fill:#BA68C8;" points="360.297,217.559 441.53,184.878 442.712,189.442 442.712,182.954 			"/>
			<polygon style="fill:#455A64;" points="360.297,144.023 277.882,182.954 360.297,217.559 442.712,182.954 			"/>
		</g>
		<g>
			<g>
				<path style="fill:#BA68C8;" d="M316.112,214.83c-0.011-0.537-0.261-13.194,0.971-16.787c1.235-3.601,5.932-7.253,15.708-12.213
					c10.862-5.512,20.845-7.852,21.947-8.101l0.405,1.799c-1.079,0.244-10.854,2.535-21.518,7.946
					c-9.183,4.66-13.746,8.104-14.796,11.167c-0.936,2.727-0.947,12.583-0.872,16.151L316.112,214.83z"/>
				<path style="opacity:0.8;fill:#FFFFFF;" d="M316.112,214.83c-0.011-0.537-0.261-13.194,0.971-16.787
					c1.235-3.601,5.932-7.253,15.708-12.213c10.862-5.512,20.845-7.852,21.947-8.101l0.405,1.799
					c-1.079,0.244-10.854,2.535-21.518,7.946c-9.183,4.66-13.746,8.104-14.796,11.167c-0.936,2.727-0.947,12.583-0.872,16.151
					L316.112,214.83z"/>
			</g>
			<g>
				<g>
					<path style="fill:#BA68C8;" d="M326.818,253.522c0-9.477-1.571-26.436-6.536-31.361h-6.551
						c-4.964,4.925-6.535,21.885-6.535,31.361v0l0,0c0,1.45,0.958,2.899,2.873,4.005c1.916,1.106,4.427,1.659,6.938,1.659
						c2.511,0,5.022-0.553,6.938-1.659C325.861,256.422,326.818,254.972,326.818,253.522L326.818,253.522L326.818,253.522z"/>
					<path style="opacity:0.5;fill:#FFFFFF;" d="M326.818,253.522c0-9.477-1.571-26.436-6.536-31.361h-6.551
						c-4.964,4.925-6.535,21.885-6.535,31.361v0l0,0c0,1.45,0.958,2.899,2.873,4.005c1.916,1.106,4.427,1.659,6.938,1.659
						c2.511,0,5.022-0.553,6.938-1.659C325.861,256.422,326.818,254.972,326.818,253.522L326.818,253.522L326.818,253.522z"/>
					<path style="opacity:0.6;fill:#BA68C8;" d="M313.731,222.161c-0.373,0.37-0.725,0.816-1.061,1.314
						c1.248,1.325,3.167,1.661,5.084,1.815c1.762,0.142,3.897,1.698,4.746,9.469c0.849,7.77,2.5,17.695-0.578,20.699
						c-3.078,3.004-9.952,2.98-13.563,0.739l0,0c0.444,0.478,1.011,0.928,1.71,1.331c1.916,1.106,4.427,1.659,6.938,1.659
						c2.511,0,5.022-0.553,6.938-1.659c1.916-1.106,2.874-2.556,2.874-4.005v0c0-9.477-1.571-26.436-6.536-31.361H313.731z"/>
				</g>
				<g>
					<path style="fill:#BA68C8;" d="M321.922,218.706c0,2.714-2.201,4.915-4.915,4.915c-2.715,0-4.915-2.2-4.915-4.915
						c0-2.715,2.201-4.915,4.915-4.915C319.721,213.79,321.922,215.991,321.922,218.706z"/>
					<path style="opacity:0.5;fill:#FFFFFF;" d="M321.922,218.706c0,2.714-2.201,4.915-4.915,4.915c-2.715,0-4.915-2.2-4.915-4.915
						c0-2.715,2.201-4.915,4.915-4.915C319.721,213.79,321.922,215.991,321.922,218.706z"/>
					<path style="opacity:0.4;fill:#BA68C8;" d="M319.865,214.72c1.226,1.295,1.411,4.681-1.195,6.389
						c-2.593,1.699-5.298,0.376-6.329-0.935c0.627,1.992,2.467,3.447,4.667,3.447c2.714,0,4.915-2.201,4.915-4.915
						C321.922,217.06,321.106,215.613,319.865,214.72z"/>
				</g>
			</g>
		</g>
		<g>
			<path style="fill:#263238;" d="M353.675,175.384c0-0.979,0.646-1.957,1.94-2.704c2.586-1.493,6.779-1.493,9.365,0
				c1.293,0.747,1.94,1.725,1.94,2.704c0,0.365,0,1.799,0,2.163c0,0.979-0.647,1.957-1.94,2.704c-2.586,1.493-6.779,1.493-9.365,0
				c-1.293-0.747-1.94-1.725-1.94-2.704C353.675,177.182,353.675,175.748,353.675,175.384z"/>
			<path style="fill:#37474F;" d="M364.98,178.087c2.586-1.493,2.586-3.914,0-5.407c-2.586-1.493-6.779-1.493-9.365,0
				s-2.586,3.914,0,5.407C358.201,179.58,362.394,179.58,364.98,178.087z"/>
		</g>
	</g>
</g>
<g id="Apple">
	<g id="Apple_2_">
		<g id="XMLID_5395_">
			<g id="XMLID_5430_">
				<path id="XMLID_5435_" style="fill:#BA68C8;" d="M97.944,373.09c5.852-0.654,16.068-1.596,24.549,10.257
					c9.659,13.498,5.624,33.034-4.04,42.629c-12.141,12.054-33.667,16.319-48.379,6.885c-16.267-10.43-21.443-34.575-13.643-46.847
					c7.8-12.271,23.104-11.773,27.237-10.796C89.874,376.685,93.388,373.599,97.944,373.09z"/>
				<path id="XMLID_5434_" style="opacity:0.1;" d="M77.548,428.515c16.41,5.651,36.473-0.406,47.272-12.026
					c-1.623,3.665-3.793,6.93-6.367,9.486c-12.141,12.054-33.667,16.319-48.379,6.886c-12.334-7.909-18.276-23.694-17.035-36.218
					C53.038,400.095,59.489,422.296,77.548,428.515z"/>
				<g id="XMLID_5433_" style="opacity:0.1;">
					<path style="fill:#FFFFFF;" d="M104.837,377.219c3.685-0.957,9.677,1.434,13.385,6.041c4.606,5.724,6.571,14.577,6.579,21.258
						c0.016,13.474-11.478,22.502-12.893,21.597c-1.414-0.905,6.326-11.03-0.957-23.201
						C103.56,390.565,98.801,378.788,104.837,377.219z"/>
				</g>
				<g id="XMLID_5432_" style="opacity:0.1;">
					<path style="fill:#FFFFFF;" d="M108.087,378.842c4.027,0.638,9.473,5.975,11.356,10.089c1.883,4.114,1.819,7.14,1.319,7.744
						c-0.9,1.087-9.918-5.154-13.011-8.119C103.369,384.354,101.595,377.812,108.087,378.842z"/>
				</g>
				<path id="XMLID_5431_" style="opacity:0.2;" d="M93.826,385.322c1.756-1.967,3.529-3.11,4.96-0.844
					c1.431,2.265-3.333,7.022-9.63,6.288c-6.296-0.735-9.036-4.289-9.243-6.286c0,0,3.434,3.826,7.541,3.634
					C90.292,387.983,92.916,386.343,93.826,385.322z"/>
			</g>
			<g id="XMLID_5414_">
				<path id="XMLID_5425_" style="fill:#37474F;" d="M88.896,389.233c0,0-1.5-8.71-0.088-16.855
					c1.413-8.144,5.288-14.343,6.489-15.156c1.2-0.813,3.314-1.623,6.397-2.106c3.082-0.483,7.103,0.963,6.299,2.317
					c-0.804,1.354-5.089,2.997-9.617,8.941c-4.526,5.944-8.001,16.593-7.014,22.437C91.364,388.813,90.404,389.767,88.896,389.233z"
					/>
				<path id="XMLID_5424_" style="fill:#455A64;" d="M95.507,357.093c0.091-0.057,0.177-0.115,0.278-0.171
					c0.01-0.006,0.021-0.011,0.031-0.017c1.252-0.701,3.199-1.369,5.88-1.788c2.276-0.357,5.058,0.34,6.037,1.272
					c0.285,0.408-0.288,1.121-2.973,1.977c-2.696,0.86-5.604,1.099-8.22,0.621C95.268,358.754,94.625,357.772,95.507,357.093z"/>
				<path id="XMLID_5415_" style="opacity:0.1;" d="M91.248,378.862c1.245-7.344,7.607-14.37,12.205-17.781l0,0
					c-1.519,1.255-3.276,2.932-5.076,5.295c-4.526,5.944-8.001,16.593-7.014,22.437c0,0-0.959,0.955-2.468,0.42
					c0,0-0.359-2.099-0.56-5.192C88.97,386.838,90.101,385.63,91.248,378.862z"/>
			</g>
			<g id="XMLID_5410_">
				<path id="XMLID_5413_" style="fill:#BA68C8;" d="M88.296,376.909c-3.592,1.375-9.99,1.074-14.305-2.966
					c-5.184-4.855-3.659-12.575-3.659-12.575s6.388-2.639,12.444,1.689C87.194,366.214,88.959,373.474,88.296,376.909z"/>
				<path id="XMLID_5412_" style="opacity:0.3;" d="M88.296,376.909c-3.592,1.375-9.99,1.074-14.305-2.966
					c-5.184-4.855-3.659-12.575-3.659-12.575s6.388-2.639,12.444,1.689C87.194,366.214,88.959,373.474,88.296,376.909z"/>
				<path id="XMLID_5411_" style="fill:#BA68C8;" d="M70.331,361.368c0,0,6.388-2.639,12.444,1.689
					c4.418,3.157,6.184,10.417,5.52,13.852C83.021,366.768,70.331,361.368,70.331,361.368z"/>
				<path id="XMLID_5437_" style="opacity:0.2;" d="M70.331,361.368c0,0,6.388-2.639,12.444,1.689
					c4.418,3.157,6.184,10.417,5.52,13.852C83.021,366.768,70.331,361.368,70.331,361.368z"/>
			</g>
		</g>
	</g>
</g>
<g id="Pen">
	<g id="Pen_2_">
		<g id="Pen_3_">
			<g id="XMLID_5521_">
				<path id="XMLID_5524_" style="fill:#BA68C8;" d="M369.101,364.592c0,2.955,2.076,6.549,4.638,8.026
					c0.993,0.576,1.911,0.742,2.664,0.565c-0.148,0.16-0.32,0.291-0.502,0.394l1.112-0.634c0.023-0.017,0.039-0.029,0.063-0.04
					c0.057-0.034,0.108-0.074,0.165-0.114c0.074-0.052,0.143-0.114,0.206-0.177c0.04-0.04,0.079-0.08,0.12-0.126
					c0.011-0.005,0.017-0.011,0.022-0.022c0.035-0.04,0.074-0.086,0.108-0.137c0.154-0.2,0.28-0.428,0.382-0.69
					c0.029-0.074,0.057-0.149,0.08-0.223c0.017-0.04,0.028-0.074,0.034-0.113c0.023-0.069,0.04-0.137,0.051-0.205
					c0.086-0.348,0.126-0.73,0.126-1.152c0-2.955-2.077-6.549-4.633-8.026c-0.747-0.434-1.449-0.634-2.077-0.634h-0.017
					c-0.097,0-0.194,0.006-0.285,0.018l-0.268,0.045c-0.057,0.012-0.108,0.029-0.16,0.046l-0.096,0.029
					c-0.064,0.022-0.126,0.045-0.189,0.08l-0.04,0.017c-0.057,0.029-0.12,0.057-0.177,0.092l-0.97,0.553
					c0.154-0.079,0.325-0.142,0.502-0.177C369.42,362.549,369.101,363.433,369.101,364.592z M376.737,373.076
					c0.028-0.011,0.053-0.027,0.08-0.038C376.789,373.05,376.764,373.065,376.737,373.076z"/>
				<path id="XMLID_5523_" style="fill:#F0F0F0;" d="M249.226,431.602l6.537,11.364l1.107-0.639l119.03-68.75
					c0.182-0.103,0.354-0.234,0.502-0.394c0.536-0.565,0.855-1.449,0.855-2.607c0-2.954-2.077-6.548-4.638-8.026
					c-0.741-0.433-1.448-0.633-2.07-0.633c-0.206,0-0.399,0.023-0.588,0.068c-0.177,0.034-0.348,0.097-0.502,0.177
					c-0.028,0.012-0.057,0.029-0.08,0.04l-0.029,0.017c-0.005,0.005-0.005,0.005-0.011,0.005L249.226,431.602z"/>
				<path id="XMLID_5522_" style="fill:#BA68C8;" d="M252.504,431.927c-2.559-1.478-4.634-0.28-4.634,2.675
					c0,2.956,2.075,6.549,4.634,8.027c2.56,1.477,4.635,0.28,4.635-2.676C257.138,436.998,255.064,433.404,252.504,431.927z"/>
			</g>
			<g id="XMLID_5517_">
				<path id="XMLID_5519_" style="fill:#455A64;" d="M318.297,396.61c0.006-0.011,0.017-0.017,0.029-0.017l0.154-0.091
					c0.285-0.125,0.662-0.086,1.078,0.154c0.907,0.524,1.649,1.808,1.649,2.858c0,0.462-0.142,0.805-0.382,0.993
					c0,0.006-0.006,0.006-0.006,0.006l-0.2,0.114l-70.435,40.662l-4.632-2.675L318.297,396.61z"/>
				<path id="XMLID_5518_" style="fill:#37474F;" d="M256.724,437.513l-6.54,3.776l-4.632-2.675l8.854-5.113
					C255.434,434.629,256.26,436.059,256.724,437.513z"/>
			</g>
			<g id="XMLID_5510_">
				<g id="XMLID_5514_">
					<path id="XMLID_5516_" style="fill:#BA68C8;" d="M240.21,441.905L240.21,441.905l-0.006-0.006l5.365-5.899
						c0.047-0.057,0.093-0.113,0.144-0.159c0.596-0.596,1.556-0.647,2.644-0.021c1.807,1.043,3.275,3.584,3.275,5.673
						c0,1.206-0.488,1.997-1.247,2.254c-0.021,0.005-0.036,0.01-0.051,0.016l-0.216,0.046l-7.865,1.715l-0.003-0.003
						c-0.241,0.054-0.532-0.001-0.846-0.182c-0.824-0.475-1.492-1.632-1.492-2.582C239.912,442.371,240.025,442.084,240.21,441.905z
						"/>
					<path id="XMLID_5515_" style="opacity:0.1;" d="M240.21,441.905L240.21,441.905l-0.006-0.006l5.365-5.899
						c0.047-0.057,0.093-0.113,0.144-0.159c0.596-0.596,1.556-0.647,2.644-0.021c1.807,1.043,3.275,3.584,3.275,5.673
						c0,1.206-0.488,1.997-1.247,2.254c-0.021,0.005-0.036,0.01-0.051,0.016l-0.216,0.046l-7.865,1.715l-0.003-0.003
						c-0.241,0.054-0.532-0.001-0.846-0.182c-0.824-0.475-1.492-1.632-1.492-2.582C239.912,442.371,240.025,442.084,240.21,441.905z
						"/>
				</g>
				<g id="XMLID_5511_">
					<path id="XMLID_5513_" style="fill:#BA68C8;" d="M239.911,442.756c0,0.95,0.668,2.105,1.494,2.582
						c0.313,0.18,0.606,0.236,0.842,0.18l0.005,0.005l3.974-0.868c0.626-0.133,1.037-0.724,1.037-1.668
						c0-1.52-1.067-3.373-2.382-4.133c-0.781-0.452-1.473-0.416-1.91,0.005l-0.107,0.118l-2.66,2.922l0.005,0.005
						C240.024,442.083,239.911,442.371,239.911,442.756z"/>
					<path id="XMLID_5512_" style="opacity:0.1;" d="M241.403,441.894c-0.824-0.475-1.492-0.09-1.492,0.861
						c0,0.951,0.668,2.107,1.492,2.582c0.823,0.475,1.491,0.09,1.491-0.861C242.894,443.526,242.227,442.37,241.403,441.894z"/>
				</g>
			</g>
			<g id="XMLID_5507_">
				<path id="XMLID_5509_" style="fill:#FAFAFA;" d="M359.448,372.818c0.297-0.177,0.708-0.148,1.164,0.113
					c0.908,0.526,1.643,1.798,1.638,2.842c0,0.53-0.183,0.901-0.485,1.066l0,0l-40.94,23.667c0.24-0.188,0.382-0.531,0.382-0.993
					c0-1.05-0.742-2.333-1.649-2.858c-0.417-0.24-0.793-0.279-1.078-0.154L359.448,372.818z"/>
				<path id="XMLID_5508_" style="fill:#F5F5F5;" d="M358.969,373.879c0,1.044,0.736,2.316,1.643,2.841
					c0.451,0.256,0.856,0.285,1.147,0.114c0.302-0.165,0.49-0.53,0.49-1.061c0.006-1.044-0.73-2.316-1.638-2.842
					c-0.456-0.262-0.867-0.29-1.164-0.113C359.152,372.989,358.969,373.359,358.969,373.879z"/>
			</g>
			<path id="XMLID_5506_" style="fill:#BA68C8;" d="M362.638,366.862l-0.003-0.004l0.053-0.03c0.024-0.015,0.048-0.029,0.073-0.042
				l6.837-3.943c0.052-0.033,0.105-0.064,0.16-0.092l0.038-0.023l0.002,0.004c0.743-0.364,1.734-0.28,2.826,0.35
				c2.304,1.33,4.171,4.564,4.171,7.224c0,1.337-0.473,2.274-1.234,2.707v0l-6.921,3.995c-0.012,0.007-0.025,0.015-0.037,0.022
				l-0.041,0.023l-0.002-0.004c-0.75,0.399-1.765,0.326-2.887-0.321c-2.304-1.33-4.171-4.564-4.171-7.224
				C361.501,368.226,361.934,367.318,362.638,366.862z"/>
			<path id="XMLID_5505_" style="opacity:0.05;" d="M362.638,366.862l-0.003-0.004l0.053-0.03c0.024-0.015,0.048-0.029,0.073-0.042
				l6.837-3.943c0.052-0.033,0.105-0.064,0.16-0.092l0.038-0.023l0.002,0.004c0.743-0.364,1.734-0.28,2.826,0.35
				c2.304,1.33,4.171,4.564,4.171,7.224c0,1.337-0.473,2.274-1.234,2.707v0l-6.921,3.995c-0.012,0.007-0.025,0.015-0.037,0.022
				l-0.041,0.023l-0.002-0.004c-0.75,0.399-1.765,0.326-2.887-0.321c-2.304-1.33-4.171-4.564-4.171-7.224
				C361.501,368.226,361.934,367.318,362.638,366.862z"/>
			<path id="XMLID_5504_" style="opacity:0.1;" d="M365.672,367.096c-2.304-1.33-4.171-0.252-4.171,2.408
				c0,2.66,1.867,5.895,4.171,7.224c2.303,1.33,4.171,0.252,4.171-2.408C369.842,371.66,367.975,368.426,365.672,367.096z"/>
			<g id="XMLID_5501_">
				<path id="XMLID_5503_" style="fill:#455A64;" d="M238.018,444.387L238.018,444.387l2.829-1.698l0.001,0.003
					c0.14-0.09,0.335-0.085,0.554,0.042c0.422,0.244,0.764,0.836,0.764,1.324c0,0.244-0.086,0.415-0.224,0.495l0,0l-2.819,1.704l0,0
					c-0.155,0.086-0.334,0.135-0.523,0.135c-0.6,0-1.087-0.486-1.087-1.086C237.514,444.918,237.715,444.58,238.018,444.387z"/>
				<path id="XMLID_5502_" style="fill:#263238;" d="M237.854,444.516l0.006-0.005c0.045-0.041,0.099-0.085,0.15-0.119
					c0.006,0,0.006-0.006,0.011-0.006c0.131-0.051,0.304-0.023,0.492,0.086c0.422,0.246,0.765,0.833,0.765,1.323
					c0,0.239-0.08,0.405-0.217,0.485c-0.018,0.012-0.04,0.023-0.058,0.028c-0.017,0.012-0.056,0.026-0.056,0.026
					c-0.108,0.046-0.223,0.059-0.349,0.059c-0.599,0-1.084-0.49-1.084-1.089C237.514,444.991,237.643,444.71,237.854,444.516z"/>
			</g>
		</g>
	</g>
</g>
<g id="Pencil">
	<g id="Pencil_1_">
		<g id="XMLID_5409_">
			<g id="XMLID_5457_">
				<path id="XMLID_5490_" style="fill:#FFA8A7;" d="M419.586,367.556l18.383-3.601c0.535-0.104,0.898,0.529,0.537,0.937
					l-12.471,14.121L419.586,367.556z"/>
				<path id="XMLID_5481_" style="fill:#263238;" d="M438.505,364.892c0.361-0.408-0.001-1.041-0.537-0.937l-3.589,0.703l0,0
					c1.006,0.622,1.578,1.755,1.484,2.934l-0.026,0.32L438.505,364.892z"/>
				<path id="XMLID_5463_" style="fill:#455A64;" d="M335.688,430.75l1.504-0.863l1.818-1.035l87.024-49.836
					c0.681-1.998,0.35-4.184-0.512-6.097c-1.303-2.919-3.836-5.221-5.933-5.355l-86.983,49.815l-3.469,1.99
					C331.455,418.206,337.996,429.551,335.688,430.75z"/>
				<path id="XMLID_5462_" style="fill:#EBEBEB;" d="M341.423,427.484l3.355-1.932c0.991-0.528,0.423-2.96-0.737-5.479
					c-1.532-3.347-4.55-6.587-5.864-5.89l-2.475,1.42l-0.877,0.523c1.315-0.698,4.335,2.542,5.867,5.89
					c1.108,2.413,1.671,4.761,0.829,5.399l-0.009,0.006C341.491,427.449,341.461,427.467,341.423,427.484z"/>
				<path id="XMLID_5461_" style="fill:#BA68C8;" d="M342.257,426.995c2.304-1.222-4.293-12.582-6.597-11.361l-3.365,1.924
					c2.304-1.222,8.9,10.138,6.596,11.358L342.257,426.995z"/>
				<path id="XMLID_5460_" style="fill:#EBEBEB;" d="M335.688,430.75l3.322-1.898c2.271-1.182-4.002-12.199-6.404-11.474
					c-0.044,0.008-0.091,0.03-0.137,0.053l-3.331,1.937C331.455,418.206,337.996,429.551,335.688,430.75z"/>
				<path id="XMLID_5459_" style="opacity:0.15;" d="M438.589,364.273l-0.62-0.318l-13.339,7.296l-90.771,52
					c-0.129-0.206-0.235-0.219-0.321-0.078c1.961,3.056,3.441,6.906,2.15,7.577l1.504-0.863l1.818-1.035l87.024-49.836l0.002-0.003
					l12.47-14.121C438.674,364.702,438.68,364.463,438.589,364.273z"/>
				<path id="XMLID_5458_" style="fill:#F28F8F;" d="M321.597,438.813l14.09-8.063c0.988-0.512,0.44-2.923-0.698-5.428
					c-1.522-3.354-4.527-6.623-5.852-5.954c0,0-0.008-0.002-0.019,0.004l-14.134,8.095c-2.807,1.62-0.226,7.717,2.907,10.441
					C319.057,438.937,320.36,439.393,321.597,438.813z"/>
			</g>
			<path id="XMLID_5456_" style="opacity:0.1;" d="M322.438,434.442c-0.808-3.176-3.381-6.29-5.748-6.956
				c-0.868-0.244-1.586-0.122-2.109,0.283c-2.12,1.968,0.347,7.563,3.311,10.14c1.142,1.008,2.416,1.46,3.633,0.929
				C322.58,438.221,322.986,436.596,322.438,434.442z"/>
		</g>
	</g>
</g>
<g id="Speech_Bubble">
	<g id="Speech_Bubble_4_">
		<g id="Speech_Bubble_1_">
			<path id="Speech_Bubble_3_" style="fill:#BA68C8;" d="M262.644,94.69l15.141-7.919c0,0,9.617,2.456,25.671,1.506
				c23.749-1.405,37.611-11.433,34.081-25.517c-3.618-14.432-19.498-20.095-47.805-18.99c-35.416,1.383-44.005,25.389-22.858,39.576
				L262.644,94.69z"/>
			<path id="Speech_Bubble_5_" style="opacity:0.7;fill:#FFFFFF;" d="M262.644,94.69l15.141-7.919c0,0,9.617,2.456,25.671,1.506
				c23.749-1.405,37.611-11.433,34.081-25.517c-3.618-14.432-19.498-20.095-47.805-18.99c-35.416,1.383-44.005,25.389-22.858,39.576
				L262.644,94.69z"/>
		</g>
		<g>
			<circle style="fill:#FFFFFF;" cx="278.884" cy="66.535" r="3.775"/>
			<circle style="fill:#FFFFFF;" cx="296.64" cy="66.535" r="3.775"/>
			<circle style="fill:#FFFFFF;" cx="314.396" cy="66.535" r="3.775"/>
		</g>
	</g>
</g>
<g id="Character">
	<g id="Laptop_3_">
		<g>
			<path id="XMLID_5394_" style="fill:#37474F;" d="M72.274,323.279c0,2.586,1.935,4.244,4.323,5.622l97.853,56.496
				c2.387,1.378,6.258,1.378,8.646,0l157.86-91.14c2.387-1.378,4.323-3.152,4.323-5.739c0-2.586-1.935-4.186-4.323-5.565
				l-97.853-56.496c-2.387-1.378-6.258-1.378-8.646,0l-157.861,91.14C74.208,318.976,72.273,320.692,72.274,323.279z"/>
			<path id="XMLID_5393_" style="fill:#455A64;" d="M76.596,322.589l97.854,56.496c2.387,1.378,6.258,1.378,8.646,0l157.86-91.14
				c2.387-1.378,2.387-3.613,0-4.992l-97.853-56.496c-2.387-1.378-6.258-1.378-8.646,0l-157.861,91.14
				C74.208,318.976,74.208,321.211,76.596,322.589z"/>
			<path id="XMLID_5391_" style="fill:#263238;" d="M178.776,380.127v6.301c-1.567,0-3.135-0.339-4.323-1.028l-97.857-56.498
				c-2.386-1.378-4.322-3.036-4.322-5.622c0-2.426,1.74-4.116,3.985-5.489c-1.854,1.31-1.889,3.512,0.337,4.8l97.857,56.498
				C175.641,379.777,177.208,380.127,178.776,380.127z"/>
		</g>
		<g>
			<g>
				<path id="XMLID_5390_" style="fill:#37474F;" d="M70.395,318.266c-1.895-0.873-2.41-2.379-2.591-5.031l-8.483-124.105
					c-0.181-2.652,1.608-5.92,3.995-7.298l157.86-91.14c2.387-1.378,4.137-2.127,6.342-0.62c2.307,1.576,2.252,2.341,2.433,4.993
					l8.482,124.105c0.181,2.652-1.608,5.92-3.995,7.298l-157.861,91.14C74.19,318.986,72.838,319.391,70.395,318.266z"/>
				<path id="XMLID_5389_" style="fill:#455A64;" d="M229.953,95.06c-0.18-2.647-2.265-3.678-4.652-2.306L67.438,183.899
					c-1.193,0.69-2.242,1.854-2.957,3.176l-4.119-2.072l-0.008,0c0.723-1.322,1.772-2.487,2.965-3.176L221.174,90.69
					c2.387-1.379,4.147-2.141,6.341-0.621C229.833,91.675,229.773,92.413,229.953,95.06z"/>
				<path id="XMLID_5387_" style="fill:#263238;" d="M76.257,317.79c-2.173,1.284-3.549,1.442-5.862,0.472
					c-1.768-0.742-2.408-2.375-2.589-5.026l-8.483-124.11c-0.09-1.325,0.307-2.806,1.037-4.119l4.118,2.056l0.001,0.009
					c-0.719,1.323-1.127,2.794-1.037,4.12l8.483,124.11C72.094,317.76,74.218,318.995,76.257,317.79z"/>
			</g>
			<g>
				<path id="XMLID_5386_" d="M70.181,188.644l151.917-87.685c1.433-0.827,2.682-0.207,2.791,1.384l7.914,115.777
					c0.109,1.592-0.965,3.552-2.398,4.379L78.489,310.183c-1.433,0.827-2.682,0.207-2.791-1.384l-7.914-115.775
					C67.675,191.432,68.748,189.471,70.181,188.644z"/>
			</g>
			<path style="fill:#BA68C8;" d="M70.181,188.644c-1.433,0.827-2.506,2.788-2.397,4.379l7.783,113.847l150.181-86.681
				c1.433-0.827,2.506-2.788,2.397-4.379l-7.783-113.849L70.181,188.644z"/>
			<path style="opacity:0.8;fill:#FFFFFF;" d="M70.181,188.644c-1.433,0.827-2.506,2.788-2.397,4.379l7.783,113.847l150.181-86.681
				c1.433-0.827,2.506-2.788,2.397-4.379l-7.783-113.849L70.181,188.644z"/>
		</g>
		<g>
			<path id="XMLID_5385_" style="fill:#263238;" d="M89.948,318.331l145.067-83.753c1.126-0.65,2.951-0.65,4.077,0l5.284,2.964
				c1.126,0.65,1.126,1.704,0,2.353l-145.089,83.74c-1.126,0.65-2.951,0.65-4.077,0l-5.262-2.951
				C88.822,320.035,88.822,318.981,89.948,318.331z"/>
			<g id="XMLID_316_">
				<path id="XMLID_5384_" style="fill:#263238;" d="M104.194,326.734L249.26,242.98c1.126-0.65,2.793-0.741,3.725-0.203
					l37.759,21.801c0.931,0.538,0.774,1.5-0.352,2.15l-144.897,83.64c-1.126,0.65-2.795,0.744-3.729,0.209l-37.919-21.699
					C102.913,328.344,103.068,327.384,104.194,326.734z"/>
				<path id="XMLID_319_" style="fill:#455A64;" d="M229.895,278.158l4.542-2.622c0.193-0.112,0.211-0.282,0.039-0.381l-4.346-2.509
					c-0.171-0.099-0.467-0.089-0.66,0.023l-4.542,2.622c-0.193,0.111-0.21,0.282-0.039,0.381l4.345,2.509
					C229.407,278.28,229.702,278.269,229.895,278.158z M223.264,269.085l-4.542,2.622c-0.193,0.112-0.21,0.282-0.039,0.381
					l4.345,2.509c0.171,0.099,0.467,0.089,0.66-0.022l4.542-2.623c0.193-0.111,0.211-0.282,0.039-0.381l-4.346-2.509
					C223.752,268.963,223.457,268.973,223.264,269.085z M208.59,277.557l-7.687,4.438c-0.193,0.111-0.21,0.282-0.039,0.38
					l4.346,2.509c0.172,0.099,0.467,0.089,0.66-0.023l7.686-4.438c0.193-0.111,0.211-0.282,0.039-0.381l-4.345-2.509
					C209.078,277.435,208.783,277.445,208.59,277.557z M216.625,272.917l-4.542,2.623c-0.193,0.111-0.211,0.282-0.039,0.381
					l4.346,2.509c0.171,0.099,0.467,0.089,0.659-0.022l4.542-2.622c0.193-0.112,0.211-0.282,0.039-0.381l-4.346-2.509
					C217.114,272.795,216.818,272.806,216.625,272.917z M198.807,283.205l-4.542,2.622c-0.193,0.112-0.21,0.282-0.039,0.381
					l4.346,2.509c0.171,0.099,0.467,0.089,0.66-0.022l4.542-2.623c0.193-0.111,0.21-0.282,0.039-0.38l-4.345-2.509
					C199.295,283.083,198.999,283.093,198.807,283.205z M192.168,287.037l-4.542,2.622c-0.193,0.111-0.21,0.282-0.039,0.381
					l4.346,2.509c0.171,0.099,0.467,0.089,0.66-0.022l4.542-2.622c0.193-0.112,0.21-0.282,0.039-0.381l-4.345-2.508
					C192.657,286.916,192.361,286.926,192.168,287.037z M209.201,297.274l4.542-2.623c0.193-0.111,0.21-0.282,0.039-0.381
					l-4.345-2.509c-0.172-0.099-0.467-0.089-0.66,0.022l-4.542,2.622c-0.193,0.111-0.211,0.282-0.039,0.381l4.346,2.509
					C208.712,297.396,209.008,297.386,209.201,297.274z M202.562,301.107l4.542-2.622c0.193-0.112,0.21-0.282,0.039-0.381
					l-4.345-2.508c-0.171-0.099-0.467-0.089-0.66,0.022l-4.542,2.622c-0.193,0.111-0.21,0.282-0.039,0.381l4.346,2.509
					C202.074,301.228,202.369,301.218,202.562,301.107z M195.924,304.94l4.542-2.623c0.193-0.111,0.21-0.282,0.039-0.38
					l-4.345-2.509c-0.171-0.099-0.467-0.089-0.66,0.023l-4.542,2.622c-0.193,0.112-0.21,0.282-0.039,0.381l4.345,2.509
					C195.436,305.061,195.73,305.051,195.924,304.94z M189.285,308.772l4.542-2.622c0.193-0.111,0.21-0.282,0.039-0.381
					l-4.345-2.509c-0.172-0.099-0.467-0.089-0.66,0.022l-4.542,2.622c-0.193,0.111-0.211,0.282-0.039,0.381l4.345,2.509
					C188.797,308.893,189.092,308.884,189.285,308.772z M223.257,281.991l4.542-2.622c0.193-0.111,0.21-0.282,0.039-0.381
					l-4.346-2.509c-0.171-0.099-0.467-0.089-0.66,0.023l-4.542,2.622c-0.193,0.112-0.211,0.282-0.04,0.381l4.345,2.509
					C222.769,282.112,223.064,282.102,223.257,281.991z M215.839,293.442l10.132-5.85c0.193-0.112,0.21-0.282,0.039-0.381
					l-10.553-6.093c-0.172-0.099-0.467-0.089-0.66,0.023l-5.241,3.026c-0.193,0.112-0.211,0.282-0.04,0.381l5.587,3.225
					c0.171,0.099,0.154,0.27-0.039,0.381l-4.192,2.421c-0.193,0.111-0.211,0.282-0.039,0.381l4.346,2.509
					C215.35,293.563,215.646,293.553,215.839,293.442z M185.53,290.87l-4.542,2.623c-0.193,0.111-0.21,0.282-0.039,0.381
					l4.345,2.509c0.171,0.099,0.467,0.089,0.66-0.023l4.542-2.622c0.193-0.112,0.21-0.282,0.039-0.381l-4.345-2.509
					C186.018,290.749,185.723,290.759,185.53,290.87z M178.892,294.703l-4.542,2.622c-0.193,0.112-0.21,0.282-0.039,0.381
					l4.345,2.509c0.171,0.099,0.467,0.089,0.66-0.022l4.542-2.623c0.193-0.111,0.21-0.282,0.039-0.381l-4.346-2.509
					C179.38,294.581,179.085,294.591,178.892,294.703z M142.157,335.624c0.171,0.099,0.467,0.089,0.66-0.023l4.542-2.622
					c0.193-0.111,0.21-0.282,0.039-0.381l-4.345-2.509c-0.171-0.099-0.467-0.089-0.66,0.023l-4.542,2.622
					c-0.193,0.111-0.21,0.282-0.04,0.381L142.157,335.624z M125.785,325.364l-4.542,2.622c-0.193,0.111-0.211,0.282-0.039,0.381
					l4.345,2.508c0.172,0.099,0.467,0.089,0.66-0.022l4.542-2.622c0.193-0.111,0.211-0.282,0.039-0.381l-4.345-2.508
					C126.273,325.243,125.978,325.252,125.785,325.364z M134.202,333.048c0.171,0.099,0.467,0.089,0.66-0.022l4.542-2.623
					c0.193-0.111,0.21-0.282,0.038-0.381l-4.345-2.509c-0.171-0.099-0.467-0.089-0.66,0.023l-4.542,2.622
					c-0.193,0.112-0.211,0.282-0.039,0.381L134.202,333.048z M152.518,337.168l4.542-2.622c0.193-0.112,0.21-0.282,0.039-0.381
					l-4.345-2.509c-0.171-0.099-0.467-0.089-0.66,0.023l-4.542,2.622c-0.192,0.111-0.21,0.282-0.039,0.381l4.345,2.508
					C152.03,337.289,152.325,337.279,152.518,337.168z M145.22,341.023c0.171,0.099,0.467,0.089,0.659-0.022l4.542-2.623
					c0.193-0.111,0.21-0.282,0.039-0.381l-4.346-2.509c-0.172-0.099-0.467-0.089-0.66,0.022l-4.542,2.623
					c-0.193,0.111-0.21,0.282-0.039,0.38L145.22,341.023z M132.423,321.531l-4.542,2.622c-0.193,0.112-0.21,0.282-0.039,0.381
					l4.345,2.509c0.172,0.099,0.467,0.089,0.66-0.023l4.542-2.622c0.193-0.111,0.211-0.282,0.039-0.381l-4.345-2.509
					C132.911,321.41,132.616,321.42,132.423,321.531z M165.615,302.368l-4.542,2.622c-0.193,0.112-0.21,0.282-0.039,0.381
					l4.345,2.509c0.172,0.099,0.467,0.089,0.66-0.022l4.542-2.623c0.193-0.111,0.21-0.282,0.039-0.381l-4.346-2.509
					C166.103,302.246,165.808,302.257,165.615,302.368z M139.061,317.699l-4.542,2.622c-0.193,0.111-0.21,0.282-0.039,0.381
					l4.345,2.509c0.172,0.099,0.467,0.089,0.66-0.022l4.542-2.622c0.193-0.112,0.21-0.282,0.039-0.381l-4.345-2.509
					C139.55,317.577,139.255,317.587,139.061,317.699z M172.253,298.535l-4.542,2.622c-0.193,0.111-0.21,0.282-0.039,0.381
					l4.345,2.509c0.171,0.099,0.466,0.089,0.66-0.023l4.542-2.622c0.193-0.112,0.21-0.282,0.039-0.381l-4.345-2.509
					C172.742,298.414,172.446,298.424,172.253,298.535z M158.977,306.201l-4.542,2.622c-0.193,0.111-0.211,0.282-0.039,0.381
					l4.346,2.508c0.171,0.099,0.467,0.089,0.66-0.022l4.542-2.622c0.193-0.111,0.211-0.282,0.039-0.381l-4.346-2.508
					C159.465,306.079,159.169,306.089,158.977,306.201z M152.338,310.033l-4.542,2.623c-0.193,0.111-0.211,0.282-0.039,0.381
					l4.345,2.509c0.171,0.099,0.467,0.089,0.66-0.023l4.542-2.622c0.193-0.112,0.21-0.282,0.039-0.381l-4.345-2.509
					C152.827,309.912,152.531,309.922,152.338,310.033z M145.7,313.866l-4.542,2.622c-0.193,0.112-0.211,0.282-0.039,0.381
					l4.345,2.509c0.172,0.099,0.467,0.089,0.66-0.023l4.542-2.622c0.193-0.111,0.21-0.282,0.039-0.381l-4.345-2.508
					C146.188,313.745,145.893,313.755,145.7,313.866z M176.008,316.438l4.542-2.623c0.193-0.111,0.211-0.282,0.039-0.381
					l-4.346-2.509c-0.172-0.099-0.467-0.089-0.66,0.023l-4.542,2.622c-0.193,0.112-0.21,0.282-0.039,0.381l4.345,2.509
					C175.52,316.559,175.815,316.549,176.008,316.438z M237.938,260.612l-4.542,2.622c-0.193,0.111-0.21,0.282-0.039,0.381
					l4.345,2.509c0.172,0.099,0.467,0.089,0.66-0.023l4.542-2.622c0.193-0.111,0.21-0.282,0.039-0.381l-4.345-2.509
					C238.427,260.491,238.131,260.501,237.938,260.612z M229.902,265.252l-4.542,2.622c-0.193,0.111-0.21,0.281-0.039,0.381
					l4.345,2.509c0.171,0.099,0.467,0.089,0.66-0.022l4.542-2.622c0.193-0.112,0.21-0.282,0.039-0.381l-4.346-2.509
					C230.39,265.13,230.095,265.14,229.902,265.252z M244.576,256.78l-4.542,2.622c-0.193,0.111-0.21,0.282-0.039,0.381l4.346,2.508
					c0.171,0.099,0.467,0.089,0.659-0.023l4.542-2.622c0.193-0.112,0.211-0.282,0.039-0.381l-4.345-2.509
					C245.065,256.658,244.77,256.668,244.576,256.78z M207.884,290.866l4.542-2.622c0.193-0.112,0.21-0.282,0.039-0.381
					l-4.345-2.509c-0.172-0.099-0.467-0.089-0.66,0.023l-4.542,2.622c-0.193,0.111-0.21,0.282-0.039,0.381l4.346,2.509
					C207.396,290.988,207.691,290.978,207.884,290.866z M251.874,252.924c-0.171-0.099-0.467-0.089-0.66,0.022l-4.541,2.622
					c-0.193,0.112-0.211,0.282-0.039,0.381l4.345,2.509c0.171,0.099,0.467,0.089,0.659-0.022l4.542-2.622
					c0.193-0.111,0.211-0.282,0.039-0.381L251.874,252.924z M182.647,312.605l4.542-2.622c0.193-0.112,0.21-0.282,0.039-0.381
					l-4.345-2.509c-0.171-0.099-0.467-0.089-0.66,0.022l-4.542,2.623c-0.193,0.111-0.21,0.282-0.039,0.381l4.345,2.509
					C182.158,312.727,182.454,312.716,182.647,312.605z M264.054,265.604l4.542-2.622c0.193-0.111,0.21-0.282,0.039-0.381
					l-4.345-2.508c-0.172-0.099-0.467-0.089-0.66,0.023l-4.542,2.622c-0.193,0.111-0.21,0.282-0.039,0.381l4.345,2.509
					C263.566,265.726,263.861,265.716,264.054,265.604z M251.208,265.853l4.542-2.623c0.193-0.111,0.21-0.281,0.039-0.38
					l-4.345-2.509c-0.171-0.099-0.467-0.089-0.659,0.022l-4.542,2.622c-0.193,0.112-0.211,0.282-0.039,0.381l4.346,2.509
					C250.72,265.975,251.015,265.965,251.208,265.853z M258.082,256.508c-0.171-0.099-0.467-0.089-0.66,0.022l-4.542,2.622
					c-0.193,0.111-0.21,0.282-0.039,0.381l4.345,2.509c0.171,0.099,0.467,0.089,0.659-0.022l4.542-2.622
					c0.193-0.112,0.211-0.282,0.039-0.381L258.082,256.508z M259.48,255.702l10.553,6.093c0.172,0.099,0.467,0.089,0.66-0.023
					l4.542-2.622c0.193-0.112,0.21-0.282,0.039-0.381l-10.553-6.093c-0.172-0.099-0.467-0.089-0.66,0.023l-4.542,2.622
					C259.326,255.432,259.308,255.603,259.48,255.702z M244.146,264.196l-4.542,2.622c-0.193,0.111-0.211,0.282-0.039,0.381
					l4.345,2.508c0.172,0.099,0.467,0.089,0.66-0.023l4.542-2.622c0.193-0.112,0.21-0.282,0.039-0.381l-4.345-2.509
					C244.634,264.075,244.339,264.085,244.146,264.196z M194.184,293.042l-4.542,2.623c-0.193,0.111-0.211,0.282-0.039,0.381
					l4.345,2.509c0.172,0.099,0.467,0.089,0.66-0.022l4.542-2.622c0.193-0.112,0.21-0.282,0.039-0.381l-4.345-2.509
					C194.672,292.92,194.376,292.931,194.184,293.042z M256.756,269.46c0.171,0.099,0.467,0.089,0.66-0.022l4.542-2.622
					c0.193-0.112,0.21-0.282,0.039-0.381l-4.346-2.509c-0.171-0.099-0.467-0.089-0.659,0.022l-4.542,2.623
					c-0.193,0.111-0.211,0.282-0.039,0.381L256.756,269.46z M200.822,289.209l-4.542,2.622c-0.193,0.112-0.21,0.282-0.039,0.381
					l4.345,2.509c0.171,0.099,0.467,0.089,0.66-0.022l4.542-2.623c0.193-0.111,0.211-0.282,0.039-0.381l-4.345-2.509
					C201.31,289.088,201.015,289.098,200.822,289.209z M148.795,331.791c0.171,0.099,0.467,0.089,0.66-0.023l4.542-2.622
					c0.192-0.111,0.21-0.282,0.039-0.381l-4.345-2.509c-0.171-0.099-0.467-0.089-0.659,0.022l-4.542,2.622
					c-0.193,0.111-0.21,0.282-0.039,0.381L148.795,331.791z M141.077,323.703l-4.542,2.623c-0.193,0.111-0.21,0.282-0.039,0.381
					l4.345,2.509c0.172,0.099,0.467,0.089,0.66-0.022l4.542-2.622c0.193-0.112,0.21-0.282,0.039-0.381l-4.345-2.509
					C141.565,323.582,141.27,323.592,141.077,323.703z M156.093,327.935l4.542-2.622c0.193-0.111,0.211-0.282,0.039-0.381
					l-4.346-2.508c-0.171-0.099-0.467-0.089-0.66,0.022l-4.542,2.622c-0.193,0.111-0.21,0.282-0.039,0.381l4.346,2.508
					C155.605,328.057,155.9,328.047,156.093,327.935z M162.732,324.103l4.542-2.622c0.193-0.112,0.211-0.282,0.039-0.381
					l-4.345-2.509c-0.171-0.099-0.467-0.089-0.66,0.023l-4.542,2.622c-0.193,0.112-0.21,0.282-0.039,0.381l4.346,2.509
					C162.243,324.224,162.539,324.214,162.732,324.103z M169.37,320.27l4.542-2.622c0.193-0.112,0.21-0.282,0.039-0.381
					l-4.345-2.509c-0.171-0.099-0.467-0.089-0.66,0.023l-4.542,2.622c-0.193,0.111-0.211,0.282-0.039,0.381l4.345,2.509
					C168.882,320.392,169.177,320.382,169.37,320.27z M147.715,319.871l-4.542,2.622c-0.193,0.111-0.21,0.282-0.039,0.381
					l4.346,2.509c0.171,0.099,0.467,0.089,0.66-0.023l4.542-2.622c0.193-0.111,0.21-0.282,0.039-0.381l-4.346-2.509
					C148.203,319.749,147.908,319.759,147.715,319.871z M154.353,316.038l-4.542,2.622c-0.193,0.112-0.211,0.282-0.039,0.381
					l4.346,2.509c0.172,0.099,0.467,0.089,0.66-0.023l4.542-2.623c0.193-0.111,0.21-0.282,0.039-0.381l-4.345-2.509
					C154.842,315.917,154.546,315.927,154.353,316.038z M180.907,300.707l-4.542,2.622c-0.193,0.112-0.21,0.282-0.039,0.381
					l4.345,2.509c0.171,0.099,0.467,0.089,0.66-0.023l4.542-2.622c0.193-0.111,0.21-0.282,0.039-0.381l-4.345-2.508
					C181.395,300.586,181.1,300.596,180.907,300.707z M174.268,304.54l-4.542,2.622c-0.193,0.111-0.211,0.282-0.039,0.381
					l4.345,2.509c0.172,0.099,0.467,0.089,0.66-0.023l4.542-2.622c0.193-0.112,0.211-0.282,0.039-0.381l-4.345-2.509
					C174.756,304.418,174.461,304.428,174.268,304.54z M187.545,296.875l-4.542,2.622c-0.193,0.112-0.21,0.282-0.039,0.381
					l4.345,2.509c0.172,0.099,0.467,0.089,0.66-0.023l4.542-2.623c0.193-0.111,0.21-0.281,0.039-0.38l-4.345-2.509
					C188.033,296.753,187.738,296.763,187.545,296.875z M160.992,312.205l-4.542,2.623c-0.193,0.111-0.211,0.282-0.039,0.381
					l4.346,2.509c0.171,0.099,0.466,0.089,0.66-0.022l4.542-2.622c0.193-0.112,0.21-0.282,0.039-0.381l-4.346-2.508
					C161.48,312.084,161.184,312.094,160.992,312.205z M167.63,308.373l-4.542,2.622c-0.193,0.112-0.211,0.282-0.039,0.381
					l4.345,2.509c0.171,0.099,0.467,0.089,0.66-0.022l4.542-2.623c0.193-0.111,0.211-0.282,0.039-0.381l-4.346-2.509
					C168.118,308.251,167.823,308.261,167.63,308.373z M159.156,333.335l4.542-2.622c0.193-0.111,0.21-0.281,0.039-0.381
					l-4.346-2.509c-0.171-0.099-0.467-0.089-0.66,0.022l-4.542,2.622c-0.193,0.112-0.211,0.282-0.039,0.381l4.345,2.509
					C158.668,333.456,158.964,333.446,159.156,333.335z M124.152,331.683l-4.346-2.509c-0.172-0.099-0.467-0.089-0.66,0.023
					l-4.542,2.622c-0.193,0.111-0.21,0.282-0.039,0.381l4.345,2.509c0.172,0.099,0.467,0.089,0.66-0.023l4.542-2.622
					C124.305,331.952,124.323,331.782,124.152,331.683z M132.805,333.855l-4.345-2.508c-0.171-0.099-0.466-0.089-0.66,0.022
					l-6.988,4.034c-0.193,0.111-0.21,0.282-0.039,0.381l4.345,2.509c0.172,0.099,0.466,0.089,0.66-0.022l6.988-4.034
					C132.959,334.124,132.976,333.954,132.805,333.855z M117.665,326.728l-4.345-2.509c-0.171-0.099-0.467-0.089-0.66,0.022
					l-5.59,3.228c-0.193,0.111-0.211,0.282-0.039,0.381l4.345,2.509c0.171,0.099,0.467,0.089,0.66-0.023l5.59-3.228
					C117.82,326.998,117.837,326.827,117.665,326.728z M121.952,324.254c0.171,0.099,0.467,0.089,0.659-0.022l4.542-2.623
					c0.193-0.111,0.211-0.282,0.039-0.381l-4.346-2.509c-0.171-0.099-0.467-0.089-0.66,0.022l-4.541,2.622
					c-0.193,0.112-0.211,0.282-0.039,0.381L121.952,324.254z M140.759,336.43l-4.345-2.509c-0.172-0.099-0.467-0.089-0.66,0.023
					l-8.735,5.043c-0.193,0.112-0.21,0.282-0.039,0.381l4.345,2.509c0.171,0.099,0.467,0.089,0.66-0.022l8.735-5.043
					C140.913,336.7,140.931,336.529,140.759,336.43z M143.823,341.829l-4.346-2.508c-0.171-0.099-0.467-0.089-0.659,0.022
					l-5.59,3.227c-0.193,0.111-0.211,0.282-0.039,0.381l4.345,2.509c0.171,0.099,0.467,0.089,0.66-0.023l5.59-3.227
					C143.976,342.099,143.994,341.928,143.823,341.829z M171.308,295.758c0.171,0.099,0.467,0.089,0.659-0.022l4.542-2.623
					c0.193-0.111,0.211-0.282,0.039-0.381l-4.345-2.509c-0.172-0.099-0.467-0.089-0.66,0.023l-4.541,2.622
					c-0.193,0.112-0.211,0.282-0.039,0.381L171.308,295.758z M158.031,303.423c0.172,0.099,0.467,0.089,0.66-0.023l4.542-2.623
					c0.193-0.111,0.21-0.282,0.038-0.381l-4.345-2.509c-0.171-0.099-0.467-0.089-0.66,0.022l-4.542,2.622
					c-0.193,0.112-0.21,0.282-0.039,0.381L158.031,303.423z M128.589,320.421c0.172,0.099,0.467,0.089,0.66-0.022l4.542-2.622
					c0.193-0.111,0.211-0.282,0.039-0.381l-4.345-2.509c-0.171-0.099-0.467-0.089-0.66,0.023l-4.542,2.622
					c-0.193,0.111-0.21,0.282-0.039,0.381L128.589,320.421z M164.67,299.59c0.171,0.099,0.467,0.089,0.66-0.022l4.542-2.622
					c0.193-0.111,0.21-0.282,0.039-0.381l-4.345-2.509c-0.172-0.099-0.467-0.089-0.66,0.023l-4.542,2.622
					c-0.193,0.111-0.21,0.282-0.039,0.381L164.67,299.59z M151.393,307.256c0.172,0.098,0.467,0.089,0.66-0.023l4.542-2.622
					c0.193-0.111,0.211-0.282,0.039-0.381l-4.345-2.509c-0.172-0.099-0.467-0.089-0.66,0.023l-4.542,2.622
					c-0.193,0.112-0.21,0.282-0.039,0.381L151.393,307.256z M147.083,342.098c-0.172-0.099-0.467-0.089-0.66,0.022l-6.988,4.034
					c-0.193,0.111-0.21,0.282-0.039,0.381l4.345,2.508c0.172,0.099,0.467,0.089,0.66-0.023l6.988-4.034
					c0.193-0.111,0.21-0.282,0.039-0.381L147.083,342.098z M141.866,312.756c0.172,0.099,0.467,0.089,0.66-0.023l4.542-2.622
					c0.193-0.112,0.21-0.282,0.039-0.381l-4.345-2.509c-0.172-0.099-0.467-0.089-0.66,0.023l-4.542,2.622
					c-0.193,0.111-0.21,0.282-0.039,0.381L141.866,312.756z M135.228,316.588c0.172,0.099,0.467,0.089,0.66-0.022l4.542-2.623
					c0.193-0.111,0.211-0.282,0.039-0.381l-4.345-2.509c-0.172-0.099-0.467-0.089-0.66,0.022l-4.542,2.622
					c-0.193,0.112-0.21,0.282-0.039,0.381L135.228,316.588z M270.066,271.093c-0.172-0.099-0.466-0.089-0.66,0.022l-11.18,6.455
					c-0.193,0.111-0.211,0.282-0.039,0.381l4.346,2.508c0.171,0.099,0.467,0.089,0.66-0.023l11.18-6.455
					c0.193-0.111,0.21-0.282,0.039-0.381L270.066,271.093z M255.392,279.565c-0.171-0.099-0.466-0.089-0.66,0.023l-4.542,2.622
					c-0.193,0.112-0.21,0.282-0.039,0.381l4.345,2.509c0.172,0.098,0.467,0.089,0.66-0.023l4.542-2.622
					c0.193-0.111,0.21-0.282,0.039-0.381L255.392,279.565z M165.795,329.502l4.542-2.622c0.193-0.112,0.21-0.282,0.039-0.381
					l-4.345-2.509c-0.171-0.099-0.467-0.089-0.66,0.023l-4.542,2.622c-0.193,0.111-0.21,0.282-0.039,0.381l4.345,2.509
					C165.307,329.624,165.602,329.614,165.795,329.502z M242.116,287.23c-0.171-0.099-0.467-0.089-0.66,0.023l-4.542,2.622
					c-0.193,0.112-0.21,0.282-0.039,0.381l4.345,2.509c0.172,0.099,0.467,0.089,0.66-0.022l4.542-2.623
					c0.193-0.111,0.21-0.282,0.039-0.381L242.116,287.23z M276.705,267.26c-0.172-0.099-0.467-0.089-0.66,0.022l-4.542,2.623
					c-0.193,0.111-0.21,0.282-0.039,0.381l4.345,2.509c0.171,0.099,0.467,0.089,0.66-0.022l4.542-2.622
					c0.193-0.112,0.21-0.282,0.039-0.381L276.705,267.26z M287.689,265.937l-10.553-6.093c-0.172-0.099-0.467-0.089-0.66,0.022
					l-4.542,2.623c-0.193,0.111-0.21,0.282-0.039,0.381l10.553,6.093c0.172,0.099,0.467,0.089,0.66-0.022l4.542-2.623
					C287.843,266.206,287.86,266.035,287.689,265.937z M217.309,301.553c-0.171-0.099-0.467-0.089-0.66,0.022l-5.59,3.227
					c-0.193,0.111-0.21,0.282-0.039,0.381l4.345,2.509c0.171,0.099,0.467,0.089,0.66-0.023l5.59-3.227
					c0.193-0.111,0.211-0.282,0.039-0.381L217.309,301.553z M234.08,291.87c-0.172-0.099-0.467-0.089-0.66,0.023l-6.988,4.034
					c-0.193,0.111-0.21,0.282-0.039,0.381l4.345,2.509c0.171,0.099,0.467,0.089,0.66-0.022l6.988-4.034
					c0.193-0.111,0.21-0.282,0.039-0.381L234.08,291.87z M201.936,310.428c-0.171-0.099-0.467-0.089-0.66,0.023l-37.384,21.584
					c-0.193,0.111-0.211,0.282-0.039,0.381l4.345,2.509c0.171,0.099,0.467,0.089,0.66-0.022l37.384-21.584
					c0.193-0.112,0.211-0.282,0.039-0.381L201.936,310.428z M162.456,333.222c-0.171-0.099-0.467-0.089-0.66,0.022l-5.59,3.228
					c-0.193,0.111-0.21,0.282-0.039,0.381l4.345,2.509c0.172,0.099,0.467,0.089,0.66-0.023l5.59-3.228
					c0.193-0.111,0.21-0.282,0.039-0.381L162.456,333.222z M209.623,305.99c-0.171-0.099-0.467-0.089-0.66,0.022l-5.59,3.227
					c-0.193,0.112-0.211,0.282-0.039,0.381l4.345,2.508c0.171,0.1,0.467,0.089,0.66-0.022l5.59-3.228
					c0.193-0.111,0.21-0.281,0.039-0.38L209.623,305.99z M154.769,337.66c-0.171-0.099-0.467-0.089-0.66,0.022l-5.59,3.228
					c-0.193,0.112-0.21,0.282-0.039,0.381l4.345,2.509c0.172,0.099,0.467,0.089,0.66-0.022l5.59-3.228
					c0.193-0.112,0.211-0.282,0.039-0.381L154.769,337.66z M224.996,297.115c-0.172-0.099-0.467-0.089-0.66,0.022l-5.59,3.228
					c-0.193,0.111-0.21,0.282-0.039,0.381l4.346,2.509c0.171,0.099,0.467,0.089,0.659-0.022l5.59-3.228
					c0.193-0.111,0.21-0.282,0.039-0.381L224.996,297.115z M248.754,283.398c-0.171-0.099-0.467-0.089-0.66,0.023l-4.542,2.622
					c-0.193,0.111-0.21,0.282-0.039,0.381l4.345,2.509c0.171,0.099,0.467,0.089,0.66-0.023l4.542-2.622
					c0.193-0.112,0.21-0.282,0.039-0.381L248.754,283.398z M263.623,273.021l4.542-2.622c0.193-0.111,0.211-0.282,0.04-0.381
					l-4.346-2.508c-0.171-0.099-0.467-0.089-0.66,0.022l-4.542,2.622c-0.193,0.111-0.211,0.282-0.039,0.381l4.346,2.508
					C263.135,273.142,263.431,273.132,263.623,273.021z M236.534,274.325l4.542-2.622c0.193-0.111,0.21-0.282,0.039-0.381
					l-4.346-2.509c-0.171-0.099-0.467-0.089-0.66,0.022l-4.542,2.622c-0.193,0.112-0.21,0.282-0.039,0.381l4.345,2.509
					C236.046,274.447,236.341,274.437,236.534,274.325z M218.902,298.841l13.277-7.665c0.193-0.111,0.21-0.282,0.039-0.381
					l-4.345-2.509c-0.171-0.099-0.467-0.089-0.66,0.023l-13.277,7.665c-0.193,0.111-0.211,0.282-0.039,0.381l4.345,2.509
					C218.414,298.962,218.709,298.953,218.902,298.841z M256.325,276.876c0.171,0.099,0.467,0.089,0.66-0.022l4.542-2.622
					c0.193-0.112,0.211-0.282,0.039-0.381l-4.345-2.509c-0.171-0.099-0.467-0.089-0.659,0.023l-4.542,2.623
					c-0.193,0.111-0.21,0.282-0.039,0.381L256.325,276.876z M250.777,273.27l4.542-2.623c0.193-0.111,0.21-0.282,0.039-0.38
					l-4.345-2.509c-0.171-0.099-0.467-0.089-0.66,0.022l-4.542,2.622c-0.193,0.112-0.211,0.282-0.039,0.381l4.346,2.509
					C250.289,273.391,250.585,273.381,250.777,273.27z M212.263,302.674l4.542-2.623c0.193-0.111,0.21-0.282,0.039-0.381
					l-4.345-2.509c-0.171-0.099-0.467-0.089-0.66,0.022l-4.542,2.623c-0.193,0.111-0.21,0.282-0.039,0.381l4.345,2.509
					C211.775,302.795,212.07,302.785,212.263,302.674z M241.651,285.349c0.172,0.099,0.467,0.089,0.66-0.023l4.542-2.623
					c0.193-0.111,0.21-0.282,0.039-0.381l-4.345-2.509c-0.172-0.099-0.467-0.089-0.66,0.022l-4.542,2.622
					c-0.193,0.112-0.211,0.282-0.039,0.381L241.651,285.349z M179.072,321.837l4.542-2.623c0.193-0.111,0.21-0.281,0.039-0.381
					l-4.345-2.509c-0.171-0.099-0.467-0.089-0.66,0.022l-4.542,2.623c-0.193,0.111-0.21,0.282-0.039,0.381l4.346,2.509
					C178.583,321.959,178.879,321.948,179.072,321.837z M185.71,318.004l4.542-2.622c0.193-0.112,0.21-0.282,0.039-0.381
					l-4.345-2.509c-0.171-0.099-0.466-0.089-0.66,0.023l-4.542,2.622c-0.193,0.111-0.21,0.282-0.039,0.381l4.345,2.509
					C185.222,318.126,185.517,318.116,185.71,318.004z M172.433,325.669l4.542-2.622c0.193-0.111,0.21-0.282,0.039-0.381
					l-4.345-2.508c-0.171-0.099-0.467-0.089-0.66,0.022l-4.542,2.622c-0.193,0.111-0.21,0.282-0.039,0.381l4.345,2.509
					C171.945,325.791,172.24,325.781,172.433,325.669z M198.987,310.339l4.542-2.622c0.193-0.112,0.211-0.282,0.039-0.381
					l-4.345-2.509c-0.171-0.099-0.467-0.089-0.66,0.022l-4.542,2.622c-0.193,0.111-0.21,0.282-0.039,0.381l4.345,2.509
					C198.498,310.461,198.794,310.45,198.987,310.339z M192.348,314.171l4.542-2.622c0.193-0.111,0.211-0.282,0.039-0.381
					l-4.345-2.509c-0.171-0.099-0.467-0.089-0.66,0.023l-4.542,2.622c-0.193,0.112-0.21,0.282-0.039,0.381l4.345,2.509
					C191.86,314.293,192.156,314.283,192.348,314.171z M205.625,306.506l4.542-2.622c0.193-0.111,0.21-0.282,0.039-0.381
					l-4.346-2.509c-0.171-0.099-0.467-0.089-0.66,0.023l-4.542,2.622c-0.193,0.111-0.21,0.282-0.039,0.381l4.345,2.509
					C205.137,306.628,205.432,306.618,205.625,306.506z M241.851,253.189c0.172,0.099,0.467,0.089,0.66-0.022l4.542-2.623
					c0.193-0.111,0.21-0.282,0.039-0.381l-1.156-0.668c-0.172-0.099-0.467-0.089-0.66,0.023l-4.542,2.623
					c-0.192,0.111-0.21,0.282-0.039,0.381L241.851,253.189z M208.856,274.079c0.171,0.099,0.466,0.089,0.66-0.022l4.542-2.622
					c0.193-0.111,0.21-0.282,0.039-0.381l-4.345-2.508c-0.171-0.1-0.467-0.089-0.66,0.022l-4.542,2.623
					c-0.193,0.111-0.211,0.282-0.04,0.381L208.856,274.079z M222.133,266.414c0.171,0.099,0.467,0.089,0.659-0.023l4.542-2.622
					c0.193-0.112,0.21-0.282,0.039-0.381l-4.346-2.509c-0.171-0.099-0.467-0.089-0.66,0.023l-4.542,2.623
					c-0.192,0.111-0.21,0.282-0.039,0.381L222.133,266.414z M200.75,278.759c0.172,0.099,0.467,0.089,0.66-0.023l4.542-2.622
					c0.193-0.111,0.21-0.282,0.039-0.381l-4.345-2.509c-0.172-0.098-0.467-0.089-0.66,0.023l-4.542,2.622
					c-0.193,0.111-0.21,0.282-0.039,0.381L200.75,278.759z M215.494,270.247c0.171,0.099,0.467,0.089,0.66-0.022l4.542-2.623
					c0.192-0.111,0.21-0.282,0.039-0.381l-4.345-2.509c-0.171-0.099-0.467-0.089-0.659,0.022l-4.542,2.622
					c-0.193,0.112-0.211,0.282-0.039,0.381L215.494,270.247z M187.473,286.425c0.172,0.099,0.467,0.089,0.66-0.023l4.542-2.622
					c0.193-0.111,0.21-0.282,0.039-0.381l-4.346-2.508c-0.171-0.099-0.467-0.089-0.66,0.022l-4.542,2.622
					c-0.193,0.112-0.21,0.282-0.038,0.381L187.473,286.425z M194.111,282.592c0.172,0.099,0.467,0.089,0.66-0.023l4.542-2.622
					c0.193-0.111,0.21-0.282,0.038-0.381l-4.345-2.509c-0.171-0.099-0.467-0.089-0.66,0.022l-4.542,2.622
					c-0.193,0.111-0.21,0.282-0.039,0.381L194.111,282.592z M228.574,260.854c0.172,0.099,0.467,0.089,0.66-0.023l4.542-2.623
					c0.193-0.111,0.21-0.281,0.039-0.381l-1.157-0.668c-0.171-0.099-0.467-0.089-0.659,0.022l-4.542,2.623
					c-0.193,0.111-0.211,0.282-0.039,0.381L228.574,260.854z M248.489,249.356c0.172,0.099,0.467,0.089,0.66-0.023l4.542-2.622
					c0.193-0.112,0.21-0.282,0.039-0.381l-1.157-0.668c-0.172-0.098-0.467-0.089-0.66,0.023l-4.542,2.622
					c-0.193,0.111-0.211,0.282-0.039,0.381L248.489,249.356z M257.617,254.626c0.172,0.099,0.467,0.089,0.66-0.022l4.542-2.622
					c0.193-0.111,0.21-0.282,0.039-0.381l-4.346-2.509c-0.171-0.099-0.467-0.089-0.66,0.022l-4.542,2.623
					c-0.193,0.111-0.211,0.282-0.039,0.381L257.617,254.626z M270.262,269.189l4.542-2.623c0.193-0.111,0.211-0.282,0.039-0.381
					l-4.345-2.509c-0.171-0.099-0.467-0.089-0.66,0.022l-4.542,2.622c-0.193,0.112-0.21,0.282-0.039,0.381l4.345,2.509
					C269.773,269.31,270.069,269.3,270.262,269.189z M235.212,257.021c0.171,0.099,0.467,0.089,0.66-0.022l4.542-2.622
					c0.193-0.111,0.21-0.282,0.039-0.381l-1.157-0.667c-0.171-0.099-0.467-0.089-0.66,0.022l-4.542,2.622
					c-0.193,0.112-0.21,0.282-0.039,0.381L235.212,257.021z M180.835,290.257c0.172,0.099,0.467,0.089,0.66-0.022l4.542-2.622
					c0.193-0.112,0.211-0.282,0.039-0.381l-4.346-2.509c-0.171-0.099-0.467-0.089-0.66,0.022l-4.542,2.623
					c-0.192,0.111-0.21,0.281-0.039,0.38L180.835,290.257z"/>
			</g>
			<g>
				<polygon id="XMLID_293_" style="fill:#263238;" points="199.848,328.034 200.835,328.603 227.067,343.746 273.718,316.811 
					274.689,316.258 247.469,300.546 				"/>
				<polygon style="fill:#37474F;" points="273.118,317.157 247.469,302.36 201.434,328.949 227.067,343.746 				"/>
			</g>
		</g>
	</g>
	<g id="Character_2_">
		<g>
			<path style="fill:#263238;" d="M139.75,56.804c-8.201-5.372-18.771-4.411-24.485-0.087c-8.041,6.085-10.82,12.771-12.261,26.042
				c-2.023,18.641-4.104,23.981-6.315,28.236c-2.402,4.621-6.041,6.777-9.243,7.861c2.053,1.305,6.16,2.624,10.595,0.439
				c-1.882,8.99-4.502,16.549-2.173,26.053c1.569,6.403,4.916,13.655,9.844,18.245c4.198,3.909,10.208,5.103,15.259,7.313
				c-3.408-7.314-5.239-14.217-2.884-22.438c2.598-9.068,8.677-16.789,11.375-25.929c3.732-12.643,8.013-25.737,9.068-38.927
				C139.423,72.454,139.836,64.436,139.75,56.804z"/>
			<path style="fill:#BA68C8;" d="M135.656,58.471c-1.305-1.227-7.099-0.436-10.593,3.734s-5.584,10.237-1.336,13.486
				C127.713,78.74,143.183,62.513,135.656,58.471z"/>
		</g>
		<path style="fill:#263238;" d="M183.152,76.772c2.883-1.065,4.105-4.771,3.245-7.721c-0.86-2.951-3.27-5.196-5.841-6.88
			c-5.804-3.802-12.974-5.434-19.858-4.619c-6.116-1.985-13.07-2.432-19.951-0.99c-7.193,1.507-15.318,8.322-15.984,18.666
			c-10.277,2.424-14.767,15.033-8.421,28.498c4.605,9.77,15.032,16.52,16.288,21.376l38.938-30.261
			c1.517,2.368,6.218,2.477,8.145,1.537c1.926-0.94,3.118-4.416,1.837-6.134c3.49,0.345,6.991-2.467,7.405-5.95
			C189.369,80.81,186.626,77.255,183.152,76.772z"/>
		<path d="M140.747,56.562c-4.261,1.081-8.052,3.606-10.832,6.911c-1.393,1.653-2.522,3.523-3.313,5.522
			c-0.8,1.998-1.236,4.123-1.384,6.263l-0.023,0.336l-0.326,0.078c-2.405,0.574-4.642,1.801-6.369,3.559
			c-1.739,1.748-2.972,3.965-3.698,6.329c-1.422,4.769-0.97,9.988,0.667,14.713c1.558,4.8,4.463,9.021,7.805,12.837
			c1.664,1.919,3.424,3.76,5.122,5.669c0.841,0.961,1.696,1.913,2.451,2.95c0.746,1.03,1.479,2.122,1.785,3.373
			c-0.374-1.232-1.176-2.251-1.951-3.244c-0.791-0.992-1.683-1.902-2.561-2.821c-1.784-1.815-3.605-3.604-5.326-5.499
			c-1.725-1.889-3.376-3.865-4.806-6.014c-1.464-2.133-2.541-4.515-3.415-6.94c-0.903-2.425-1.406-4.999-1.594-7.588
			c-0.166-2.588,0.021-5.241,0.827-7.745c0.789-2.497,2.124-4.855,4.006-6.713c1.868-1.87,4.287-3.166,6.85-3.752l-0.349,0.413
			c0.33-4.479,2.196-8.798,5.164-12.108c1.471-1.668,3.225-3.07,5.128-4.189C136.508,57.786,138.587,56.959,140.747,56.562z"/>
		<g>
			<g>
				<path style="fill:#FFBDA7;" d="M283.445,140.805c2.142-1.814,2.531-2.281,5.416-4.595c2.138-1.715,3.846-3.098,4.398-4.1
					c1.085-1.973,0.074-3.928-0.829-3.61c-1.808,0.639-3.949,2.173-8.124,5.041c-4.583,3.149-7.824,6.255-8.071,5.758
					c0,0,1-1.578,4.898-5.797c5.612-6.074,6.713-7.176,7.751-9.118c2.173-4.066-0.881-4.733-2.228-3.895
					c-1.526,0.95-3.188,2.793-7.204,6.78c-4.366,4.335-8.166,8.743-8.508,8.481c-0.342-0.263,5.684-6.865,9.301-11.706
					c3.359-4.496,1.171-6.395,0.217-6.543c-1.016-0.159-2.191,1.152-3.813,2.894c-2.925,3.143-11.446,13.551-13.228,15.646
					c-1.782,2.095-3.133,2.721-3.362-0.512c-0.215-3.033-0.072-6.257-1.392-8.344c-2.209-3.491-4.647-2.637-4.654-0.301
					c-0.01,3.296-0.796,7.002-1.378,12.27c-0.303,2.747-0.256,6.029-0.314,7.941c-0.34,6.688-5.953,10.144-10.622,13.364
					c-4.678,3.226-17.387,10.471-17.387,10.471s-23.723-24.424-30.644-30.413c-8.223-7.115-10.568-7.619-22.178-7.521l16.422,42.225
					c0,0,22.315,20.65,29.896,25.061c7.581,4.411,10.656,1.984,19.869-6.173c7.075-6.264,18.711-20.638,21.525-23.832
					c2.814-3.195,4.025-5.248,7.283-6.443c4.43-1.625,6.712-3.85,9.659-7.229c1.409-1.615,3.741-4.85,5.898-7.033
					c3.51-3.551,7.94-6.694,9.182-7.735c1.942-1.626,2.247-4.971-0.48-3.917c-5.155,1.992-10.329,6.365-10.495,6.074
					C280.085,143.7,281.973,142.051,283.445,140.805z"/>
				<path style="fill:#F0997A;" d="M261.855,141.014c2.373,3.483,2.903,11.732,0.599,16.647
					C267.223,152.99,266.716,144.595,261.855,141.014z"/>
			</g>
			<path style="fill:#F0997A;" d="M224.313,170.929c-3.93,2.576-8.623,9.996-7.286,17.641c-1.704-5.635-3.189-12.681,5.436-19.698
				L224.313,170.929z"/>
		</g>
		<path style="fill:#BA68C8;" d="M110.954,145.345l9.141-3.665c0,0,13.654-3.541,25.037-5.981
			c11.946-1.506,22.305-2.634,22.305-2.634l4.054-0.07c0,0,8.994,7.911,15.588,15.226c6.594,7.315,12.383,13.419,12.747,22.644
			c0.492,12.474-7.517,17.021-7.517,17.021l0.496,15.889l10.404,29.455l-100.594,58.061c3.06-35.851,11.024-41.763,15.482-66.615
			c-0.857-13.002-7.325-30.839-8.428-39.891C105.848,153.447,110.954,145.345,110.954,145.345z"/>
		<g id="Top_7_">
			<g>
				<g>
					<path style="fill:#FFBDA7;" d="M132.264,129.722c0.376-4.388,0.979-13.125,0.979-13.125c-1.095,1.458-6.987,3.464-11.027-2.221
						c-4.653-6.548-3.916-11.237-0.671-14.372c3.707-3.581,10.189-2.665,12.883,3.016c1.695,4.01,5.029-0.715,1.674-7.013
						c-1.108-11.059,13.004-3.724,21.786-26.782c8.87-0.504,14.221,2.017,18.535,9.379c1.957,3.339,4.328,8.143,3.844,22.073
						c-0.617,17.745-3.287,23.322-9.494,26.293c-2.862,1.37-5.804,1.893-11.314,1.477l-0.053,1.703
						c0.012,0.354-0.008,0.776,0.062,1.181c0.124,0.712,0.522,1.814,1.88,1.891c2.846,0.162,6.09-0.169,6.09-0.169
						s4.581,11.347-10.435,14.583c-21.094,4.545-36.908-5.955-36.908-5.955s3.43-1.721,6.435-3.894
						C131.157,134.443,132.028,132.474,132.264,129.722z"/>
					<path style="fill:#FAFAFA;" d="M126.506,113.538c0.038,1.195,1.039,2.133,2.234,2.095c1.195-0.038,2.133-1.039,2.095-2.234
						c-0.039-1.195-1.039-2.133-2.234-2.095C127.405,111.342,126.467,112.342,126.506,113.538z"/>
					<g>
						<g id="XMLID_5534_">
							<path id="XMLID_5535_" style="fill:#B16668;" d="M154.837,111.171l9.647,2.997c-0.778,2.759-3.568,4.326-6.232,3.499
								C155.588,116.84,154.059,113.932,154.837,111.171z"/>
							<path style="fill:#F28F8F;" d="M155.466,113.391c2.694-0.087,5,1.76,5.589,4.289c-0.886,0.261-1.851,0.282-2.802-0.013
								c-1.912-0.594-3.222-2.263-3.532-4.177C154.967,113.449,155.21,113.399,155.466,113.391z"/>
						</g>
						<path id="XMLID_5533_" style="fill:#263238;" d="M176.576,87.072l-6.062-1.453c0.341-1.702,1.975-2.757,3.649-2.356
							C175.836,83.664,176.917,85.37,176.576,87.072z"/>
						<path id="XMLID_5532_" style="fill:#263238;" d="M146.995,86.764l5.904-2.238c-0.561-1.667-2.338-2.516-3.969-1.898
							C147.301,83.247,146.434,85.099,146.995,86.764z"/>
						<path id="XMLID_5531_" style="fill:#263238;" d="M170.624,94.935c-0.098,1.417,0.983,2.676,2.415,2.815
							c1.432,0.138,2.671-0.9,2.769-2.317c0.098-1.418-0.983-2.677-2.414-2.814C171.962,92.482,170.721,93.518,170.624,94.935z"/>
						<path id="XMLID_5530_" style="fill:#263238;" d="M149.468,95.073c-0.098,1.417,0.983,2.677,2.415,2.815
							c1.432,0.138,2.671-0.9,2.769-2.317c0.099-1.418-0.983-2.677-2.414-2.814C150.807,92.62,149.566,93.657,149.468,95.073z"/>
					</g>
					<g id="XMLID_5528_">
						<path id="XMLID_5529_" style="fill:#F0997A;" d="M159.458,128.446c-5.396-0.504-12.146-2.276-16.525-4.635
							c-3.645-1.964-5.424-5.104-6.448-7.143c0,0-0.139,5.201,4.448,9.04c5.026,4.206,18.536,5.622,18.536,5.622
							c-0.065-0.354-0.062-0.718-0.063-1.18L159.458,128.446z"/>
					</g>
				</g>
			</g>
		</g>
		<g id="Arm_3_">
			<path style="fill:#F0997A;" d="M152.305,190.016c4.882-4.142,7.368-5.781,9.713-6.608c2.345-0.826,10.503-4.84,13.664-5.843
				c2.005-0.636,3.035,2.552,0.581,4.944c-1.889,1.842-6.941,4.419-9.14,5.811c-2.2,1.392-6.331,7.108-6.331,7.108L152.305,190.016z
				"/>
			<path style="fill:#FFBDA7;" d="M141.242,226.443c-15.958,9.079-30.014,20.392-45.511,22.715
				c-15.126,2.267-15.596-10.255-15.325-19.588c0.342-11.779,6.947-48.716,10.372-61.023c3.637-13.068,6.015-17.882,20.176-23.202
				c11.693,7.669,9.048,33.002,6.506,42.67c-2.652,10.085-6.939,28.933-6.939,28.933s18.438-5.806,22.869-8.148
				c4.431-2.342,11.85-12.3,14.779-15.49c3.987-4.34,6.126-3.927,8.304-3.739c7.129,0.615,8.716,1.111,10.271,1.967
				c1.555,0.855,1.547,2.663,1.547,2.663c1.89,0.116,4.693-0.119,5.249,2.939c0.367,2.019,0.267,2.461,0.267,2.461
				s0.679,0.025,1.263,0.622c1.675,1.71-0.607,8.136-2.211,9.77c-1.126,1.147-2.82,1.388-5.073,1.225
				c-1.916-0.138-1.155-2.127-1.155-2.127l-2.648,0.326c-5.487,4.441-5.752,10.999-13.232,13.259
				C149.172,223.152,145.073,224.023,141.242,226.443z"/>
			<g>
				<path style="fill:#F0997A;" d="M168.291,194.2l-8.494-1.164l8.245,0.014C168.197,193.436,168.282,193.819,168.291,194.2z"/>
				<path style="fill:#F0997A;" d="M173.808,199.6l-9.732-0.644l9.673-0.477C173.812,198.826,173.825,199.203,173.808,199.6z"/>
				<path style="fill:#F0997A;" d="M172.804,203.933c-0.262,0.515-0.725,0.921-1.228,1.209c-0.502,0.305-1.045,0.51-1.615,0.667
					l0.123-0.1c-0.225,0.521-0.469,1.034-0.718,1.544l-0.215-0.245c0.555-0.136,1.113-0.017,1.559,0.279
					c0.446,0.295,0.735,0.747,0.921,1.208c-0.275-0.42-0.642-0.764-1.049-0.99c-0.413-0.203-0.91-0.269-1.323-0.157l-0.366,0.1
					l0.151-0.345c0.228-0.52,0.462-1.037,0.714-1.546l0.04-0.08l0.083-0.02c0.534-0.127,1.067-0.321,1.575-0.546
					C171.952,204.669,172.45,204.389,172.804,203.933z"/>
				<path style="fill:#F0997A;" d="M170.318,205.336c-0.948,0.26-3.478,0.466-3.478,0.466s-0.031,0.694-1.083,1.932
					c-0.563,0.662-1.772,1.682-1.772,1.682l2.648-0.326c0,0,0.573-1.228,2.937-1.837L170.318,205.336z"/>
			</g>
			<path style="fill:#F0997A;" d="M111.322,213.46l-0.8,3.488c-6.811,2.218-13.984,7.519-15.407,11.409
				C96.028,222.274,99.34,217.479,111.322,213.46z"/>
		</g>
		<g>
			<path style="fill:#37474F;" d="M182.754,88.355c-0.327-0.044-0.669-0.085-1.023-0.121c-3.346-0.353-7.806-0.431-10.502,0.461
				c-3.474,1.156-4.681,2.437-6.706,2.486c-2.198,0.031-3.652-1.233-7.754-2.336c-3.334-0.889-9.005-0.725-13.501-0.257
				c-0.491,0.052-0.969,0.107-1.426,0.165c-0.792,0.101-1.674,1.099-1.64,2.26c0.035,1.168,0.955,2.083,1.34,2.61
				c0.171,0.233,0.333,0.57,0.457,1.057c0.466,1.84,0.728,5.43,1.673,7.41c0.381,0.797,0.933,1.774,1.839,2.64
				c0.296,0.28,0.6,0.526,0.943,0.755c0.177,0.115,0.355,0.224,0.544,0.33c0.476,0.263,1.007,0.486,1.612,0.661
				c0.09,0.026,0.18,0.051,0.27,0.071c0.137,0.033,0.282,0.069,0.426,0.098c0.144,0.029,0.292,0.054,0.445,0.079
				c0.435,0.069,0.905,0.116,1.404,0.126c0.192,0.01,0.392,0.01,0.596,0.01c0.238-0.007,0.488-0.014,0.744-0.032
				c5.628-0.369,7.827-3.221,9.061-6.03c1.209-2.738,0.726-6.447,3.101-6.508c0.079-0.001,0.154-0.001,0.225,0.007
				c0.072,0.005,0.144,0.015,0.21,0.029c1.747,0.365,1.709,3.734,2.93,6.141c0.471,0.927,1.048,1.843,1.81,2.614
				c0.134,0.139,0.271,0.27,0.418,0.396c0.073,0.067,0.147,0.126,0.222,0.185c0.076,0.061,0.152,0.12,0.231,0.177
				c0.07,0.052,0.138,0.101,0.21,0.148c0.122,0.081,0.174,0.115,0.227,0.147c0.059,0.038,0.118,0.073,0.179,0.106
				c0.04,0.026,0.082,0.049,0.124,0.073c0.598,0.329,1.274,0.584,2.044,0.734c0.06,0.011,0.123,0.024,0.186,0.033
				c0.721,0.127,1.522,0.166,2.412,0.098c4.486-0.335,5.741-3.302,6.284-5.126c0.533-1.799,0.498-4.924,0.682-6.551
				c0.04-0.358,0.16-0.635,0.3-0.844c0.265-0.396,0.756-1.334,0.707-2.336C184.007,89.327,183.316,88.431,182.754,88.355z
				 M160.088,98.328c-0.194,1.044-0.638,2.57-1.754,3.88l-0.003,0.001c-1.144,1.334-3.003,2.447-6.036,2.588
				c-3.129,0.15-4.981-1.063-6.093-2.549c-0.07-0.092-0.136-0.185-0.195-0.275c-0.066-0.093-0.124-0.183-0.179-0.274
				c-0.054-0.085-0.104-0.171-0.151-0.258c-0.043-0.076-0.086-0.156-0.124-0.233c-0.035-0.063-0.066-0.124-0.093-0.186
				c-0.031-0.057-0.058-0.113-0.081-0.167c-0.043-0.092-0.085-0.188-0.124-0.279l0-0.003c-0.119-0.281-0.219-0.553-0.303-0.817
				c-0.004-0.005-0.004-0.012-0.008-0.02c-0.053-0.168-0.103-0.333-0.148-0.49c-0.08-0.285-0.143-0.553-0.196-0.789
				c-0.011-0.052-0.022-0.103-0.033-0.151c-0.011-0.048-0.022-0.096-0.033-0.145c-0.436-1.943-0.932-5.726,0.076-6.591
				c0.962-0.824,3.583-1.754,7.723-1.42c0.139,0.004,0.285,0.018,0.436,0.035c0.624,0.063,1.245,0.156,1.855,0.284
				c0.242,0.049,0.481,0.104,0.715,0.16c0.631,0.154,1.239,0.338,1.788,0.541c0.19,0.069,0.373,0.141,0.545,0.214
				c0.208,0.084,0.404,0.174,0.59,0.266c0.039,0.019,0.078,0.037,0.118,0.059c0.075,0.036,0.147,0.073,0.215,0.114
				c0.554,0.296,0.975,0.617,1.205,0.927C160.618,93.846,160.467,96.238,160.088,98.328z M181.48,96.677
				c-0.141,1.365-0.448,4.354-2.787,5.814c-0.677,0.424-1.534,0.719-2.605,0.803c-2.883,0.241-4.628-0.975-5.668-2.426
				c-0.006-0.009-0.014-0.019-0.017-0.026c-0.041-0.056-0.079-0.111-0.113-0.163c-0.044-0.064-0.086-0.129-0.124-0.19
				c-0.021-0.031-0.042-0.065-0.062-0.099c-0.055-0.093-0.111-0.19-0.16-0.283c-0.06-0.11-0.115-0.218-0.169-0.332
				c-0.028-0.052-0.053-0.107-0.078-0.161c-0.015-0.031-0.026-0.06-0.04-0.091c-0.021-0.046-0.04-0.091-0.058-0.136
				c-0.015-0.037-0.032-0.073-0.043-0.105c-0.199-0.485-0.338-0.946-0.438-1.342c-0.496-1.994-0.828-4.304-0.195-5.409
				c0.627-1.093,3.214-2.307,5.702-2.673c0.566-0.084,1.097-0.131,1.591-0.149c0.064-0.002,0.127-0.004,0.188-0.005
				c0.069-0.002,0.136-0.002,0.203-0.002c0.188-0.002,0.373,0.003,0.55,0.008c0.067,0.003,0.133,0.005,0.2,0.01
				c0.09,0.007,0.176,0.011,0.261,0.021c0.148,0.009,0.292,0.026,0.432,0.045c0.284,0.035,0.55,0.081,0.798,0.138
				c0.064,0.015,0.128,0.03,0.189,0.046c0.014,0.002,0.032,0.006,0.049,0.012c0.041,0.01,0.084,0.02,0.128,0.035
				c0.064,0.015,0.131,0.037,0.192,0.055c0.079,0.022,0.159,0.051,0.232,0.076c0.137,0.048,0.263,0.098,0.381,0.152
				c0.024,0.009,0.044,0.018,0.068,0.03c0.382,0.172,0.676,0.364,0.881,0.552C181.755,91.606,181.654,94.947,181.48,96.677z"/>
			<path style="fill:#37474F;" d="M141.122,89.632L128.3,98.027c1.211,0.171,2.582,0.735,3.653,1.686l9.833-6.706L141.122,89.632z"
				/>
		</g>
		<path style="fill:#F0997A;" d="M172.384,105.442l-7.805,3.906l-2.008-12.396c0.144-1.151,0.77-2.24,1.238-2.429L172.384,105.442z"
			/>
	</g>
	<g id="Video_Bar">
		<g id="Window_22_">
			<path style="opacity:0.8;fill:#455A64;" d="M230.329,205.787c-0.009-0.095-0.019-0.18-0.047-0.265
				c0.009-0.019,0-0.038-0.01-0.057c-0.009-0.095-0.038-0.18-0.066-0.255c-0.038-0.133-0.094-0.256-0.17-0.369
				c-0.019-0.057-0.057-0.104-0.095-0.151c-0.028-0.038-0.047-0.076-0.085-0.104c-0.057-0.076-0.113-0.132-0.189-0.189
				c0,0-0.009-0.009-0.019-0.019c-0.076-0.057-0.161-0.104-0.246-0.142c-0.52-0.246-1.192-0.18-1.94,0.246L82.358,287.968
				c-1.59,0.918-2.886,2.319-2.886,6.372l0.001,4.352c0,1.525,1.646,2.477,2.964,1.718l145.025-83.495
				c1.589-0.918,2.886-3.151,2.886-4.996v-5.772C230.348,206.024,230.339,205.901,230.329,205.787z"/>
			<g>
				<path style="opacity:0.9;fill:#263238;" d="M80.466,300.409l-0.105-0.053l-3.037-1.764c-0.825-0.465-1.378-1.299-1.51-2.229
					c-0.017-0.14-0.026-0.281-0.026-0.421v-5.064c0-1.019,0.394-2.163,1.02-3.132l0.039,0.025l3.559,2.052
					c-0.554,0.974-0.886,2.121-0.931,4.208v4.657c0,0.272,0.061,0.509,0.132,0.711C79.843,300.014,80.326,300.33,80.466,300.409z"/>
				<path style="opacity:0.6;fill:#455A64;" d="M229.398,204.24c-0.518-0.254-1.185-0.184-1.939,0.246L82.362,287.964
					c-0.281,0.158-0.544,0.351-0.799,0.562c-0.175,0.141-0.334,0.298-0.483,0.465c-0.246,0.246-0.456,0.526-0.641,0.842l-3.625-2.08
					c0.184-0.29,0.395-0.57,0.614-0.825c0.079-0.088,0.158-0.167,0.228-0.246c0.079-0.079,0.158-0.158,0.246-0.228
					c0.079-0.079,0.158-0.149,0.246-0.211c0.167-0.14,0.342-0.254,0.518-0.36l145.114-83.488c0.825-0.483,1.562-0.492,2.089-0.167
					C226.396,202.546,228.783,203.915,229.398,204.24z"/>
				<path style="opacity:0.9;fill:#263238;" d="M80.466,300.411c0.026,0.015,0.044,0.025,0.044,0.025L80.466,300.411z"/>
			</g>
		</g>
		<g>
			<g>
				<path style="fill:#FFFFFF;" d="M90.38,291.376v-3.548c0-0.254,0.164-0.526,0.319-0.527l3.126-0.03
					c0.207-0.002,0.207,0.449,0,0.686l-3.126,3.579C90.545,291.712,90.38,291.63,90.38,291.376z"/>
			</g>
			<g>
				<g>
					<path style="fill:#FFFFFF;" d="M97.66,287.173v-3.548c0-0.254,0.164-0.526,0.319-0.527l3.126-0.03
						c0.207-0.002,0.207,0.449,0,0.686l-3.126,3.579C97.825,287.509,97.66,287.427,97.66,287.173z"/>
				</g>
				<g>
					<path style="fill:#FFFFFF;" d="M101.499,285.322L101.499,285.322c-0.132,0.076-0.239-0.005-0.239-0.181v-3.643
						c0-0.176,0.107-0.38,0.239-0.456l0,0c0.132-0.076,0.239,0.005,0.239,0.18v3.643
						C101.738,285.042,101.631,285.246,101.499,285.322z"/>
				</g>
			</g>
			<g>
				<g>
					<path style="fill:#FFFFFF;" d="M86.701,293.5v-3.548c0-0.254-0.165-0.336-0.319-0.158l-3.126,3.579
						c-0.207,0.237-0.207,0.688,0,0.686l3.126-0.03C86.536,294.026,86.701,293.755,86.701,293.5z"/>
				</g>
				<g>
					<path style="fill:#FFFFFF;" d="M82.862,296.083L82.862,296.083c0.132-0.076,0.239-0.28,0.239-0.456v-3.643
						c0-0.176-0.107-0.257-0.239-0.181l0,0c-0.132,0.076-0.239,0.28-0.239,0.456v3.643C82.623,296.078,82.73,296.159,82.862,296.083
						z"/>
				</g>
			</g>
		</g>
		<g>
			<g>
				<path style="fill:#FFFFFF;" d="M223.318,212.467c-0.152,0-0.275-0.123-0.275-0.275v-1.624c0-0.098,0.052-0.189,0.138-0.238
					l1.301-0.751c0.132-0.077,0.299-0.03,0.376,0.101c0.076,0.131,0.031,0.3-0.101,0.376l-1.163,0.672v1.465
					C223.593,212.343,223.47,212.467,223.318,212.467z"/>
			</g>
			<g>
				<path style="fill:#FFFFFF;" d="M226.859,210.423c-0.152,0-0.275-0.123-0.275-0.275V209l-0.888,0.513
					c-0.132,0.076-0.3,0.031-0.376-0.101s-0.031-0.3,0.101-0.376l1.301-0.751c0.085-0.049,0.19-0.049,0.275,0
					c0.085,0.049,0.138,0.14,0.138,0.238v1.624C227.134,210.299,227.01,210.423,226.859,210.423z"/>
			</g>
			<g>
				<path style="fill:#FFFFFF;" d="M225.558,214.244c-0.095,0-0.188-0.049-0.239-0.138c-0.076-0.131-0.031-0.299,0.101-0.376
					l1.163-0.672v-1.465c0-0.152,0.123-0.275,0.275-0.275c0.152,0,0.275,0.123,0.275,0.275v1.624c0,0.098-0.052,0.189-0.138,0.238
					l-1.301,0.751C225.652,214.232,225.605,214.244,225.558,214.244z"/>
			</g>
			<g>
				<path style="fill:#FFFFFF;" d="M223.318,215.537c-0.048,0-0.095-0.013-0.137-0.037c-0.085-0.049-0.138-0.14-0.138-0.238v-1.624
					c0-0.152,0.123-0.275,0.275-0.275c0.152,0,0.275,0.123,0.275,0.275v1.148l0.888-0.513c0.132-0.076,0.299-0.031,0.376,0.101
					c0.076,0.131,0.031,0.299-0.101,0.376l-1.301,0.751C223.413,215.524,223.366,215.537,223.318,215.537z"/>
			</g>
			<g id="XMLID_5445_">
				<path style="fill:#FFFFFF;" d="M221.306,213.376l-0.527,0.219c-0.027,0.017-0.061,0-0.07-0.035
					c-0.035-0.132-0.079-0.246-0.132-0.342c-0.018-0.026,0-0.105,0.026-0.167l0.298-0.667c0.026-0.061,0.035-0.132,0.018-0.149
					l-0.421-0.316c-0.018-0.018-0.07,0.026-0.105,0.088l-0.368,0.606c-0.035,0.061-0.088,0.105-0.114,0.097
					c-0.096-0.009-0.202-0.009-0.316,0.009c-0.026,0.009-0.053-0.018-0.062-0.062l-0.053-0.667c-0.009-0.035-0.035-0.053-0.07-0.035
					l-0.571,0.333c-0.035,0.018-0.07,0.07-0.07,0.123l-0.062,0.711c0,0.053-0.035,0.123-0.07,0.158
					c-0.097,0.097-0.193,0.202-0.281,0.316c-0.035,0.044-0.088,0.079-0.114,0.07l-0.421-0.21c-0.018-0.009-0.07,0.035-0.097,0.105
					l-0.368,0.702c-0.035,0.061-0.053,0.132-0.035,0.149l0.342,0.369c0.018,0.026,0.009,0.088-0.009,0.158
					c-0.044,0.14-0.088,0.29-0.114,0.43c-0.009,0.061-0.053,0.123-0.088,0.149l-0.509,0.377c-0.035,0.018-0.062,0.079-0.062,0.123
					v0.763c0,0.053,0.026,0.079,0.053,0.062l0.526-0.228c0.035-0.009,0.062,0.009,0.07,0.035c0.035,0.132,0.079,0.246,0.141,0.351
					c0.008,0.026,0,0.097-0.035,0.167l-0.29,0.658c-0.035,0.07-0.044,0.141-0.018,0.149l0.421,0.325
					c0.018,0.009,0.061-0.026,0.097-0.088l0.368-0.605c0.044-0.061,0.088-0.105,0.114-0.105c0.105,0.018,0.21,0.018,0.316-0.009
					c0.035,0,0.061,0.026,0.061,0.07l0.062,0.658c0,0.044,0.035,0.062,0.07,0.044l0.571-0.333c0.035-0.018,0.061-0.079,0.07-0.123
					l0.053-0.72c0.009-0.044,0.035-0.114,0.079-0.149c0.096-0.097,0.184-0.202,0.272-0.316c0.044-0.053,0.088-0.088,0.114-0.07
					l0.421,0.202c0.027,0.018,0.07-0.026,0.105-0.096l0.368-0.702c0.035-0.07,0.044-0.14,0.026-0.158l-0.334-0.368
					c-0.018-0.018-0.018-0.088,0-0.149c0.053-0.141,0.088-0.29,0.114-0.43c0.018-0.062,0.052-0.132,0.088-0.158l0.509-0.369
					c0.035-0.026,0.07-0.079,0.07-0.132v-0.764C221.367,213.384,221.341,213.358,221.306,213.376z M219.121,216.403
					c-0.536,0.307-0.965-0.026-0.965-0.737c0-0.711,0.43-1.545,0.965-1.852c0.535-0.307,0.974,0.017,0.974,0.737
					C220.095,215.262,219.656,216.087,219.121,216.403z"/>
			</g>
		</g>
		<g>
			<g>
				<g>
					<path style="fill:#BA68C8;" d="M134.372,264.808v-1.765l-27.496,15.874c-0.525,0.303-0.95,0.944-0.95,1.431
						c0,0.487,0.426,0.637,0.95,0.334L134.372,264.808z"/>
				</g>
				<path style="opacity:0.5;fill:#FFFFFF;" d="M212.291,218.126c-0.114,0.021-0.239,0.068-0.37,0.144l-77.549,44.772v1.765
					l77.552-44.775c0.262-0.152,0.5-0.387,0.671-0.646c0.086-0.129,0.155-0.265,0.203-0.398c0.048-0.133,0.074-0.264,0.074-0.386
					C212.872,218.238,212.632,218.063,212.291,218.126z"/>
			</g>
			<g>
				<path style="fill:#BA68C8;" d="M135.747,263.254c0,1.008-0.622,2.177-1.381,2.625c-0.759,0.435-1.369-0.037-1.369-1.045
					c0-1.008,0.61-2.19,1.369-2.625C135.125,261.773,135.747,262.233,135.747,263.254z"/>
				<path style="opacity:0.5;fill:#FFFFFF;" d="M135.747,263.254c0,1.008-0.622,2.177-1.381,2.625
					c-0.759,0.435-1.369-0.037-1.369-1.045c0-1.008,0.61-2.19,1.369-2.625C135.125,261.773,135.747,262.233,135.747,263.254z"/>
				<path style="fill:#BA68C8;" d="M135.26,263.533c0,0.651-0.402,1.406-0.892,1.695c-0.49,0.281-0.884-0.024-0.884-0.675
					c0-0.651,0.393-1.414,0.884-1.695C134.858,262.577,135.26,262.875,135.26,263.533z"/>
			</g>
		</g>
	</g>
</g>
</svg>
